<svg width="70" height="34" fill="none" xmlns="http://www.w3.org/2000/svg"><path d="M10.13 7.71h.906l2.172 2.855L15.32 7.71h.906v6.132H15.2v-4.25l-1.87 2.429h-.242l-1.87-2.429v4.25H10.19V7.711h-.06zm9.29 5.1h.18c.182 0 .363-.244.604-.608l-2.896-4.554h1.267l2.112 3.461 1.63-3.46h1.085l-2.232 4.735c-.423.91-.845 1.457-1.63 1.457-.784 0-.362 0-.603-.121l.422-.91h.06zm4.527-.183l.845-.607c.422.607 1.086.91 1.991.91.906 0 1.388-.424 1.388-.97 0-.547-.543-.79-1.387-.79h-1.026v-.972h.965c.724 0 1.267-.303 1.267-.789 0-.486-.663-.79-1.327-.79-.664 0-1.268.304-1.63.79l-.844-.546c.482-.668 1.327-1.215 2.595-1.215 1.267 0 2.293.608 2.293 1.761 0 1.154-.363.972-.845 1.275.724.243 1.026.79 1.026 1.336 0 1.214-1.087 1.943-2.414 1.943-1.328 0-2.293-.425-2.836-1.275l-.06-.061zm6.64-4.917h4.526v.972h-3.5V10.2h3.258v.972h-3.258v1.639h3.56v.971h-4.586V7.711zm6.101 6.13V7.708h1.026v4.25l3.32-4.25h.904v6.132h-1.025V9.59l-3.32 4.25h-.905zm1.871-7.953c.12.364.362.546.724.546s.664-.182.724-.546h.966c-.06.789-.785 1.396-1.69 1.396-.905 0-1.629-.607-1.75-1.396h1.026zM14.966 17.546h-3.38v1.396h1.69c1.448 0 2.172.668 2.172 1.822 0 1.153-.905 1.942-2.474 1.942H10.56v-6.132h4.466v.972h-.06zm-3.38 2.367v1.761h1.388c.905 0 1.328-.243 1.328-.91 0-.668-.362-.85-1.267-.85h-1.449zm7.185-3.339h.785l2.655 6.132h-1.086l-.604-1.335h-2.776l-.603 1.335h-1.086l2.655-6.132h.06zm-.603 3.886h1.991l-1.026-2.307-1.026 2.307h.06zm9.348-.364h-3.198v2.61h-1.026v-6.132h1.026v2.55h3.198v-2.55h1.026v6.132h-1.026v-2.61zm2.718-3.522h1.026v2.672l2.716-2.672h1.388l-2.776 2.732 2.957 3.4h-1.388l-2.354-2.671-.543.546v2.125h-1.026v-6.132zm8.27 0h.784l2.655 6.132h-1.086l-.603-1.335h-2.776l-.604 1.335h-1.086l2.655-6.132h.06zM37.9 20.46h1.992l-1.026-2.307-1.026 2.307h.06zM3.56 31.933V25.8h2.474c2.051 0 2.534 1.032 2.534 2.003 0 .972-.664 2.004-2.534 2.004H4.646v2.125H3.56zm1.025-5.16v2.064h1.388c1.026 0 1.449-.425 1.449-1.033 0-.607-.362-1.032-1.388-1.032H4.585zm8.029-1.035c1.75 0 3.137 1.336 3.137 3.157 0 1.822-1.387 3.158-3.137 3.158s-3.138-1.336-3.138-3.158c0-1.821 1.387-3.157 3.137-3.157zm0 5.222c1.146 0 1.99-.85 1.99-2.125s-.965-2.125-1.99-2.125c-1.026 0-1.992.85-1.992 2.125s.966 2.125 1.992 2.125zm9.719-.061c-.483.729-1.448 1.154-2.474 1.154-1.931 0-3.138-1.215-3.138-3.158 0-1.942 1.207-3.157 3.138-3.157 1.93 0 1.991.425 2.413 1.032l-.724.668c-.422-.485-.965-.728-1.629-.728-1.267 0-2.052.85-2.052 2.125s.845 2.125 2.112 2.125c1.268 0 1.328-.304 1.75-.79l.604.668v.061zm6.209 0c-.483.729-1.449 1.154-2.474 1.154-1.931 0-3.138-1.215-3.138-3.158 0-1.942 1.207-3.157 3.138-3.157 1.93 0 1.991.425 2.413 1.032l-.724.668c-.422-.485-.965-.728-1.629-.728-1.267 0-2.052.85-2.052 2.125s.845 2.125 2.112 2.125c1.268 0 1.328-.304 1.75-.79l.604.668v.061zm1.203 1.034V25.8h1.026v4.25l3.319-4.25h.905v6.132H33.97v-4.25l-3.319 4.25h-.905zm6.943 0V25.8h1.025v4.25l3.32-4.25h.904v6.132h-1.025v-4.25l-3.32 4.25h-.904zm31.799-21.494c-.362-4.372-2.413-6.8-4.887-8.075-4.044-2.125-8.992-1.275-12.25 2.003L48.694 7.04v7.043h6.035V7.1h3.802c1.99 0 3.62 1.639 3.62 3.642v.122c0 1.882-1.508 3.4-3.38 3.4H48.756c-1.992.243-3.56 1.943-3.56 4.007v2.125H60.28c1.629-.182 7-1.275 8.206-8.318.06-.546.121-1.093.06-1.579l-.06-.06zm-13.7 11.779v-1.761h-6.034v1.76h-.603c-1.63 0-2.897 1.276-2.897 2.915v2.186h3.5v4.675h2.414c2.051 0 3.68-1.64 3.68-3.704v-.971h4.466c1.63 0 2.897-1.275 2.897-2.915v-2.185h-7.422z" fill="#002738"/></svg>