<svg width="148" height="34" fill="none" xmlns="http://www.w3.org/2000/svg"><path fill="#D10000" d="M74.188 9h1.44v15.125h-1.44z"/><path d="M6.288 9.719c3.825 0 6.571 2.615 6.571 6.518v.148c0 4.16-2.462 6.905-6.798 6.905-3.259 0-5.72-1.64-6.061-4.807h3.049c.265 1.639 1.345 2.412 3.05 2.412 1.913 0 3.18-1.16 3.446-3.351H4.317v-2.246h5.247c-.284-2.081-1.496-3.204-3.314-3.204-1.761 0-2.727.81-2.974 2.43H.171C.606 11.228 2.86 9.72 6.288 9.72zm56.584 0c3.257 0 5.681 1.546 6.004 4.787h-3.145c-.227-1.584-1.136-2.43-2.84-2.43-2.14 0-3.504 1.62-3.504 4.345v.147c0 2.726 1.288 4.309 3.523 4.309 1.685 0 2.86-.829 3.106-2.522h3.011c-.34 3.258-2.746 4.934-6.079 4.934-4.431 0-6.8-2.652-6.8-6.702v-.148c0-3.995 2.88-6.72 6.724-6.72zm-29.668.015c4.072 0 6.97 2.67 6.97 6.63v.147c0 3.921-2.766 6.776-6.99 6.776-4.242 0-6.95-2.854-6.95-6.702v-.148c0-3.922 2.955-6.703 6.97-6.703zm12.246 5.564h5.436V9.922h3.068v13.166h-3.068v-5.433H45.45v5.433h-3.067V9.922h3.067v5.376zm-24.672.847l5.625 6.942h-3.579l-4.678-5.911v5.91H15.08V9.922h3.066v5.67l4.736-5.689h3.258l-5.36 6.243zm12.429-4.051c-2.348 0-3.77 1.675-3.77 4.327v.147c0 2.689 1.591 4.346 3.807 4.346 2.292 0 3.732-1.713 3.732-4.364v-.148c0-2.56-1.402-4.308-3.769-4.308zm58.383 6.347c1.006 0 1.69.543 1.69 1.34 0 .521-.282.94-.838 1.091.668.096 1.033.494 1.034 1.105 0 .899-.788 1.51-1.934 1.51-1.166 0-1.82-.666-1.933-1.662h.893c.084.529.33.927 1.048.927.633 0 .963-.316.963-.823 0-.502-.26-.72-.956-.721h-.57v-.632h.555c.577 0 .802-.274.802-.727 0-.433-.288-.68-.787-.68-.563 0-.816.268-.921.797h-.88c.12-.995.788-1.524 1.835-1.525zm8.847-.003c1.497 0 2.531 1.036 2.531 2.478v.055c0 1.434-1.006 2.512-2.531 2.512-1.54.001-2.546-1.077-2.546-2.492v-.055c0-1.434 1.055-2.498 2.546-2.498zm10.39 0c1.498 0 2.531 1.036 2.531 2.478v.055c0 1.434-1.005 2.512-2.531 2.512-1.54.001-2.546-1.077-2.546-2.492v-.055c0-1.434 1.056-2.498 2.546-2.498zm-5.09.07c1.034 0 1.646.384 1.646 1.277v.027c0 .488-.226.873-.794 1.044.681.145 1.005.508 1.005 1.16v.028c0 .913-.619 1.374-1.723 1.374h-1.933v-4.91h1.799zm-23.112 0c1.125 0 1.862.488 1.862 1.517v.028c0 1.036-.765 1.497-1.841 1.497h-.703v1.867h-.935v-4.91h1.617zm6.564 4.909h-.97l-.402-1.216h-1.92l-.393 1.216h-.879l1.682-4.91h1.223l1.66 4.91zm8.277-4.174h-2.103v4.174h-.941v-4.91h3.044v.736zm18.48-.735c1.125 0 1.863.488 1.863 1.517v.028c0 1.036-.766 1.497-1.842 1.497h-.703v1.867h-.936v-4.91h1.618zm-11.094 4.256h.907c.625 0 .913-.275.913-.783v-.027c0-.508-.288-.762-.977-.763h-.843v1.573zm-4.416-3.6c-.984 0-1.569.707-1.569 1.765v.054c0 1.071.668 1.764 1.582 1.764.949 0 1.547-.706 1.547-1.77v-.055c0-1.01-.577-1.758-1.56-1.758zm10.39 0c-.984 0-1.568.707-1.568 1.765v.054c0 1.071.668 1.764 1.582 1.764.949 0 1.547-.706 1.547-1.77v-.055c0-1.01-.577-1.758-1.561-1.758zm-24.709 2.373h1.484l-.739-2.28-.745 2.28zm-4.18-.646h.682v-.001c.62 0 .95-.296.95-.838v-.028c0-.583-.352-.81-.95-.81h-.681v1.677zm33.329-1.676v1.676h.681v-.001c.619 0 .949-.296.949-.838v-.028c0-.583-.351-.81-.949-.81h-.681zm-10.414 1.355h.773c.619 0 .857-.22.857-.72v-.028c0-.466-.273-.666-.871-.666h-.759v1.414zm25.697-10.367c1.153 0 2.046.563 2.158 1.717h-.948c-.106-.652-.479-.99-1.203-.99-.886 0-1.463.674-1.463 1.772v.055c0 1.106.542 1.758 1.47 1.758.696 0 1.188-.344 1.287-1.037h.915c-.148 1.181-1.006 1.778-2.201 1.778-1.575 0-2.455-.981-2.455-2.491v-.056c0-1.476 1.041-2.506 2.44-2.506zm-47.62 0c1.434 0 2.39.976 2.39 2.451v.054c0 1.518-.943 2.547-2.462 2.547-1.144 0-2.065-.583-2.185-1.716h.928c.112.66.547.988 1.265.988.816 0 1.372-.542 1.45-1.482H82.19v-.7h2.131c-.098-.9-.605-1.408-1.407-1.408-.717 0-1.146.344-1.244 1.016h-.936c.169-1.194.978-1.75 2.195-1.75zm9.937.004c1.498 0 2.531 1.037 2.531 2.478v.055c0 1.435-1.005 2.513-2.53 2.513-1.54 0-2.547-1.078-2.547-2.491v-.056c0-1.434 1.056-2.499 2.546-2.499zm11.141 0c1.498 0 2.531 1.037 2.531 2.478v.055c0 1.435-1.005 2.513-2.531 2.513-1.539 0-2.546-1.078-2.546-2.491v-.056c0-1.434 1.055-2.499 2.546-2.499zm10.77 3.75l2.335-3.68h.943v4.91h-.943v-3.7l-2.335 3.7h-.941v-4.91h.941v3.68zm12.624-2.958h-2.208v1.346h1.772v.686h-1.772v1.435h2.328v.722h-3.263v-4.91h3.143v.721zm11.892 2.958l2.335-3.68h.942v4.91h-.942v-3.7l-2.335 3.7h-.941v-4.91h.941v3.68zm-29.212-.33l1.295-3.35h1.236v4.91h-.934v-3.708l-1.498 3.708h-.302l-1.526-3.708v3.708h-.844v-4.91h1.252l1.321 3.35zm9.955-2.066c0 .755.316 1.106.943 1.106.804 0 1.114-.428 1.118-.433v-1.957h.934v4.91h-.934v-2.183s-.458.385-1.287.385c-1.09 0-1.716-.64-1.716-1.868v-1.244h.942v1.285zm-31.96 1.056l2.186 2.568h-1.104l-1.933-2.293v2.293h-.936v-4.909h.936v2.225l1.926-2.231h1.006l-2.082 2.347zm47.351 0l2.186 2.568h-1.103l-1.934-2.293v2.293h-.935v-4.909h.935v2.225l1.927-2.231h1.006l-2.082 2.347zm9.296 1.336l2.335-3.68H148v4.91h-.942v-3.7l-2.335 3.7h-.942v-4.91h.942v3.68zm-47.42-1.593h2.257v-2.087h.942v4.91h-.942v-2.088h-2.257v2.088h-.936v-4.91h.936v2.087zm-4.438-1.426c-.984 0-1.568.707-1.568 1.764v.055c0 1.07.668 1.765 1.582 1.766.95-.001 1.547-.708 1.547-1.773v-.055c0-1.009-.577-1.757-1.56-1.757zm11.141 0c-.984 0-1.568.707-1.568 1.764v.055c0 1.07.667 1.765 1.582 1.766.948-.001 1.546-.708 1.546-1.773v-.055c0-1.009-.576-1.757-1.56-1.757zM145.507 9c.02.234.126.446.372.446.26 0 .387-.206.415-.446h.626c-.035.57-.458.962-1.041.962-.59 0-.984-.392-1.02-.962h.648z" fill="#3E4148"/></svg>