<svg width="121" height="34" fill="none" xmlns="http://www.w3.org/2000/svg"><path d="M56.085 23.118l-.737.122.901 2.63.092.475.036.006 1.041-3.11-.743-.123v-1.071H59.9v1.071l-.614.092-2.423 6.41c-.19.474-.446.872-.764 1.192-.319.321-.799.482-1.44.482-.15 0-.29-.013-.423-.037a7.693 7.693 0 01-.465-.104l.206-1.297.177.025c.061.008.114.013.158.013.296 0 .524-.072.682-.216.158-.144.28-.324.365-.54l.202-.498-2.09-5.424-.614-.098v-1.071h3.227v1.071zm28.266 0l-.738.122.902 2.63.09.475.038.006 1.04-3.11-.743-.123v-1.071h3.227v1.071l-.614.092-2.424 6.41c-.19.474-.445.872-.764 1.192-.318.321-.798.482-1.44.482-.15 0-.29-.013-.422-.037a7.788 7.788 0 01-.466-.104l.207-1.297.176.025c.06.008.114.012.158.013.296 0 .525-.072.683-.216.158-.144.28-.324.365-.54l.2-.498-2.088-5.424-.614-.098v-1.071h3.227v1.071zm8.192-1.14c.816 0 1.449.319 1.9.956.45.637.675 1.475.675 2.514v.127c0 .974-.225 1.758-.676 2.35-.45.593-1.079.89-1.886.89-.345 0-.652-.065-.92-.193a1.89 1.89 0 01-.688-.562v1.905l.859.183v1.07h-3.489v-1.07l.859-.183v-6.611l-.95-.183V22.1h2.58l.087.767c.194-.284.428-.504.7-.658.272-.154.588-.231.949-.232zm5.943 0c.816 0 1.48.2 1.989.6.509.399.763.969.763 1.707v2.72c0 .102.001.198.003.287.002.09.01.175.022.256l.542.073v1.066h-2.052a3.231 3.231 0 01-.128-.338 2.675 2.675 0 01-.085-.351c-.211.243-.468.44-.77.59a2.298 2.298 0 01-1.039.226c-.645 0-1.157-.176-1.537-.527-.379-.35-.569-.829-.569-1.433 0-.617.248-1.093.743-1.43.495-.337 1.222-.506 2.18-.506h.906v-.645c0-.317-.09-.562-.273-.737-.183-.174-.453-.262-.81-.262-.203 0-.384.024-.542.07a1.422 1.422 0 00-.384.168l-.115.706h-1.34l.006-1.461c.325-.22.697-.404 1.117-.554a4.08 4.08 0 011.373-.226zm-46.845 0c.203 0 .385.029.547.085.163.057.324.135.482.232l-.299 1.23-.227-.062a.69.69 0 00-.555.128 1.349 1.349 0 00-.35.353l-.852 1.242 1.528 2.271.895.145v1.066h-2.442l-1.436-2.466h-.682v1.218l.81.182v1.066h-3.532v-1.066l.95-.182v-4.084l-.95-.183v-1.072h3.532v1.072l-.81.183v1.254h.608l.987-1.461c.247-.381.507-.669.779-.861.272-.193.61-.29 1.017-.29zm15.542 1.14l-.95.183v4.085l.95.182v1.066h-3.671v-1.066l.949-.182v-3.963h-1.583v1.43c0 1.299-.2 2.253-.6 2.864-.4.61-1.08.917-2.042.917h-.28l-.024-1.4.195-.007c.406 0 .67-.167.791-.5.122-.332.183-.957.183-1.873V23.3l-.95-.183v-1.071h7.032v1.071zm3.375.183l.011-.003v.873h1.236c.892 0 1.592.2 2.097.6.506.4.758.933.758 1.598 0 .682-.253 1.23-.76 1.644-.508.414-1.207.62-2.095.62h-3.963v-1.065l.95-.182V23.3l-.95-.183v-1.071h2.716V23.3zm10.302.992h-1.364l-.072-.889h-1.127v3.982l.944.182v1.066h-3.67v-1.066l.943-.182v-3.982h-1.102l-.067.889H73.98v-2.246h6.88v2.246zm17.716 1.542c-.377 0-.663.088-.858.265a.828.828 0 00-.292.635c0 .224.072.398.216.524.144.126.344.188.6.188.267 0 .51-.057.73-.173.219-.115.39-.26.511-.435v-1.004h-.907zm-6.492-2.53a1.34 1.34 0 00-.685.166c-.188.11-.337.266-.447.468v2.885c.11.187.259.33.447.427.19.097.422.145.698.145.43 0 .745-.168.946-.504.2-.337.302-.794.302-1.37v-.127c0-.621-.104-1.125-.31-1.51-.208-.386-.525-.58-.951-.58zM70.558 27.32h1.235c.365 0 .637-.082.815-.247a.84.84 0 00.269-.648.889.889 0 00-.265-.67c-.176-.17-.45-.255-.819-.255h-1.235v1.82zm.949-4.202l-.938.18v-1.251h.938v1.071zM51.836 4.971l-.95.182v.475h.018c1.108 0 2.011.307 2.71.922.697.615 1.047 1.426 1.047 2.432 0 .99-.35 1.787-1.05 2.39-.7.602-1.603.903-2.707.903h-.017v.45l.949.183v.987h-3.671v-.987l.95-.182v-.45h-.043c-1.112 0-2.015-.3-2.709-.899s-1.04-1.393-1.04-2.383c0-1.006.347-1.819 1.043-2.437.696-.62 1.598-.93 2.706-.93h.043v-.474l-.95-.182v-.987h3.67v.987zm22.586 1.67c.816 0 1.479.2 1.988.6.51.399.764.968.764 1.706v2.722c0 .101 0 .197.003.286.002.09.01.175.021.256l.542.072v1.066h-2.05a3.223 3.223 0 01-.128-.338 2.676 2.676 0 01-.085-.35c-.211.244-.469.44-.77.59-.303.15-.65.226-1.039.226-.645 0-1.158-.176-1.537-.527-.38-.35-.57-.829-.57-1.433 0-.617.249-1.094.744-1.431.495-.337 1.222-.505 2.18-.505h.906v-.645c0-.317-.091-.562-.274-.737-.182-.174-.452-.261-.81-.261-.202 0-.383.022-.541.069a1.42 1.42 0 00-.384.168l-.115.706h-1.34l.006-1.461c.324-.22.697-.404 1.117-.554.42-.15.878-.225 1.373-.225zm15.03 0a4.05 4.05 0 011.43.237c.423.158.773.382 1.053.67l.025 1.759h-1.442l-.292-1.029c-.09-.077-.2-.141-.33-.192a1.216 1.216 0 00-.444-.075c-.503 0-.858.182-1.065.548-.207.365-.31.836-.31 1.412v.182c0 .588.095 1.062.285 1.421.191.36.526.54 1.005.54.317 0 .57-.094.76-.278.192-.185.287-.431.287-.74h1.608l.017.037c.016.665-.233 1.222-.748 1.67-.515.45-1.157.673-1.924.674-.982 0-1.74-.311-2.271-.932-.532-.62-.797-1.418-.797-2.392v-.182c0-.97.272-1.768.818-2.393.546-.625 1.325-.937 2.335-.937zm6.17 0c.973 0 1.735.312 2.285.937s.825 1.431.825 2.417v.128c0 .99-.275 1.796-.825 2.419-.55.623-1.308.935-2.274.935-.978 0-1.742-.312-2.292-.935-.55-.623-.824-1.43-.824-2.419v-.128c0-.982.274-1.787.824-2.414.55-.627 1.31-.94 2.28-.94zm13.894 0c.815 0 1.478.2 1.987.6.509.399.764.968.764 1.706v2.722c0 .101.001.197.003.286.002.09.009.175.021.256l.542.072v1.066h-2.052a2.866 2.866 0 01-.213-.688c-.211.244-.468.44-.77.59-.302.15-.648.226-1.037.226-.645 0-1.158-.176-1.537-.527-.38-.35-.57-.829-.57-1.433 0-.617.247-1.094.742-1.431.496-.337 1.222-.505 2.18-.505h.907v-.645c0-.317-.091-.562-.274-.737-.183-.174-.452-.261-.81-.261-.202 0-.383.022-.542.069a1.405 1.405 0 00-.382.168l-.117.706h-1.338l.005-1.461c.325-.22.698-.404 1.118-.554.42-.15.877-.225 1.373-.225zM58.671 7.845l-.853.182v2.746l.038.006 2.142-4.006h2.722v1.072l-.944.182v4.085l.944.183v1.065h-3.575v-1.065l.853-.183V9.354l-.036-.005-2.144 4.011h-2.726v-1.065l.949-.183V8.027l-.95-.182V6.773h3.58v1.072zm8.173 0l-.767.182V9.44h2.167V8.027l-.76-.182V6.773h3.488v1.072l-.95.182v4.085l.95.183v1.065h-3.489v-1.065l.761-.183v-1.308h-2.167v1.308l.767.183v1.065h-3.488v-1.065l.95-.183V8.027l-.95-.182V6.773h3.488v1.072zm14.777 0l-.767.182V9.44h2.168V8.027l-.761-.182V6.773h3.488v1.072l-.95.182v4.085l.95.183v1.065h-3.488v-1.065l.76-.183v-1.308h-2.168v1.308l.768.183v1.065h-3.488v-1.065l.949-.183V8.027l-.95-.182V6.773h3.49v1.072zm21.395-1.072c.876 0 1.559.155 2.048.463.489.309.734.767.734 1.375 0 .309-.103.583-.308.823-.205.239-.496.422-.873.547.499.098.878.281 1.136.551.257.27.386.586.386.947 0 .62-.232 1.09-.697 1.406-.464.316-1.131.475-2 .475h-4.127v-1.065l.95-.183V8.027l-.95-.182V6.773h3.701zm17.292 1.072l-.944.182v4.085l.944.183v1.065h-3.574v-1.065l.859-.183v-1.06h-1.072l-1.285 2.308h-1.941v-1.065l.804-.122.791-1.412c-.402-.179-.71-.424-.925-.737a1.836 1.836 0 01-.323-1.065c0-.641.255-1.166.764-1.574.509-.408 1.194-.611 2.054-.612h3.848v1.072zm-45.806 2.71c-.377 0-.664.09-.858.266a.828.828 0 00-.292.636c0 .223.071.398.215.523.144.126.344.189.6.189.268 0 .511-.057.73-.173.22-.116.39-.26.512-.436v-1.004h-.907zm35.102 0c-.377 0-.663.09-.858.266a.83.83 0 00-.292.636c0 .223.073.398.217.523.144.126.344.189.6.189.267 0 .511-.057.73-.173.219-.116.389-.261.511-.436v-1.004h-.908zm-14.01-2.517c-.462 0-.799.184-1.01.554-.211.37-.316.846-.316 1.43v.128c0 .6.105 1.083.316 1.446.211.363.552.544 1.022.545.459 0 .795-.183 1.008-.548.213-.365.32-.846.32-1.443v-.127c0-.585-.108-1.062-.323-1.431-.215-.37-.554-.554-1.016-.554zm6.446 3.98h1.406c.312 0 .544-.057.694-.172.15-.116.225-.288.225-.515 0-.227-.072-.402-.216-.523-.144-.122-.378-.183-.703-.183h-1.406v1.394zm-52.948-5.18c-.625 0-1.116.186-1.473.558-.357.37-.536.9-.536 1.585 0 .666.18 1.175.536 1.528.357.353.848.53 1.473.53h.043V6.837h-.043zm1.808 4.201h.03c.622 0 1.111-.18 1.468-.539.357-.36.536-.87.536-1.531 0-.686-.179-1.212-.536-1.58-.357-.367-.846-.551-1.467-.551h-.03v4.201zm65.538-2.936c-.333 0-.591.089-.774.267a.83.83 0 00-.273.61c0 .227.088.424.264.592.177.169.428.253.752.253h1.162V8.102h-1.131zM102.04 9.429h1.077c.313-.004.543-.059.689-.164.146-.106.218-.262.218-.47 0-.239-.083-.415-.25-.526-.166-.112-.418-.167-.754-.167h-.98v1.327z" fill="#3E4148"/><ellipse cx="16.994" cy="17.021" rx="16.03" ry="16.029" fill="#FFD616"/><path d="M17.002 0c9.39 0 17 7.611 17 17s-7.61 17-17 17S0 26.389 0 17 7.612 0 17.002 0zm-.008.993C8.141.993.964 8.17.964 17.023c0 8.852 7.177 16.028 16.03 16.028 8.853 0 16.03-7.176 16.03-16.029 0-8.852-7.177-16.029-16.03-16.029zm-.427 29.389l-.104 1.505-.525-.032.105-1.504.524.03zm4.939.797l-.47.148-.444-1.36.47-.148.444 1.36zm-9.526-1.756l-.641 1.36-.448-.204.641-1.36.448.204zm13.959-.451l-.416.262-.79-1.215.416-.261.79 1.214zm-17.893-1.87L6.96 28.171l-.349-.343 1.086-1.07.349.345zm21.313-1.576l-.333.359-1.134-1.02.333-.358 1.134 1.02zm-24.238-1.8l-1.283.73-.247-.42 1.283-.73.247.42zm13.47-12.038c.923 0 1.749.29 2.332.873.631.583.923 1.36.923 2.284 0 .923-.34 1.7-.923 2.283s-1.36.874-2.332.874h-2.429v.825h3.4v1.41h-3.4v1.602h-1.7v-1.603h-1.846v-1.409h1.846v-.825h-1.846v-1.555h1.846v-4.76h4.129zm12.959 9.614l-.2.443-1.333-.582.2-.444 1.333.583zm-28.143-1.77l-1.48.292-.097-.476 1.48-.292.097.476zm28.828-2.566h-1.48v-.63h1.48v.63zM16.1 16.418h2.283c.486 0 .923-.145 1.215-.437.34-.29.485-.68.485-1.166a1.61 1.61 0 00-.485-1.166c-.292-.291-.73-.437-1.215-.437H16.1v3.206zM3.437 14.6l-.126.468-1.48-.387.126-.47 1.48.389zm28.068-2.376l-1.382.388-.136-.467 1.382-.388.136.467zM4.867 10.408l-.259.414-1.283-.777.259-.413 1.283.776zM29.25 7.674l-1.036.874-.321-.37 1.036-.873.321.369zM7.772 6.73l-.34.352-1.086-1.02.34-.351 1.086 1.02zm17.996-2.242l-.89 1.07-.38-.308.888-1.07.382.308zm-14.085-.186l-.446.21-.641-1.31.445-.21.642 1.31zm9.3-2.128l-.345 1.36-.48-.118.346-1.36.48.118zm-4.947.913l-.572.017-.057-1.36.572-.017.057 1.36z" fill="#463A33"/></svg>