<svg width="28" height="28" fill="none" xmlns="http://www.w3.org/2000/svg"><path d="M4.43 5.25l-.219.574L1.15 14H0v1.75h.875v1.75c0 2.885 2.365 5.25 5.25 5.25h1.75c2.885 0 5.25-2.365 5.25-5.25v-2.625A.86.86 0 0114 14a.86.86 0 01.875.875V17.5c0 2.885 2.365 5.25 5.25 5.25h1.75c2.885 0 5.25-2.365 5.25-5.25v-1.75H28V14h-1.149L23.79 5.824l-.22-.574h-1.694l-.246.328-2.187 2.625 1.366 1.094 1.669-2.024L24.993 14H16.46c-.365-1.011-1.33-1.75-2.461-1.75-1.131 0-2.096.739-2.461 1.75H3.007l2.517-6.727 1.668 2.024 1.366-1.094-2.187-2.625-.246-.328H4.43zm-1.805 10.5h8.75v1.75c0 1.928-1.572 3.5-3.5 3.5h-1.75a3.507 3.507 0 01-3.5-3.5v-1.75zm14 0h8.75v1.75c0 1.928-1.572 3.5-3.5 3.5h-1.75a3.507 3.507 0 01-3.5-3.5v-1.75z" fill="#fff"/></svg>