<svg width="22" height="14" fill="none" xmlns="http://www.w3.org/2000/svg"><path d="M3.422.102l-.164.426L.961 6.602H.1v1.3h.656v1.3c0 2.143 1.774 3.9 3.937 3.9h1.313c2.164 0 3.937-1.757 3.937-3.9v-1.95c0-.368.285-.65.657-.65.371 0 .656.282.656.65v1.95c0 2.143 1.774 3.9 3.937 3.9h1.313c2.163 0 3.937-1.757 3.937-3.9v-1.3h.657v-1.3h-.862L17.941.528l-.164-.426h-1.271l-.184.243-1.641 1.95 1.025.813 1.251-1.504 1.887 4.998h-6.398a1.975 1.975 0 00-1.846-1.3c-.849 0-1.572.548-1.846 1.3H2.355l1.888-4.998 1.25 1.504 1.025-.813-1.64-1.95-.185-.243h-1.27zm-1.354 7.8h6.563v1.3c0 1.431-1.18 2.6-2.625 2.6H4.693c-1.445 0-2.625-1.168-2.625-2.6v-1.3zm10.5 0h6.563v1.3c0 1.431-1.18 2.6-2.625 2.6h-1.313c-1.445 0-2.625-1.168-2.625-2.6v-1.3z" fill="#676E7B" stroke="#676E7B" stroke-width=".2"/></svg>