<svg width="138" height="34" fill="none" xmlns="http://www.w3.org/2000/svg"><g clip-path="url(#clip0_18435_11239)"><path d="M30.764 20.81c-.24-1.425-.915-3.02-1.565-3.864V9.99c.53-.12.963-.241.987-.265.072-.073.072-2.102 0-2.174-.072-.072-1.757-.7-2.792-1.087a11.05 11.05 0 00-.577-.217c-.265-.097-.458-.193-.675-.266-.192-.072-.385-.169-.577-.241-.41-.145-1.06-.41-1.444-.556a11.769 11.769 0 00-1.372-.483 19.58 19.58 0 00-.843-.265c-.168-.073-1.323-.121-1.636-.073-1.468.218-1.95.314-3.659.7 0 0-9.29 1.884-10.373 2.174-1.781.386-3.202.7-3.49.845-.722.363-1.396 1.329-1.637 2.415-.072.29-.072.87-.096 1.546v.555c0 .604-.048 1.232 0 1.546.096.604.36.338.65.024.288-.314.625-.652.914-.314v-.024c0-.12-.048-.531-.048-1.087 0-.82.289-1.521.818-2.077.506-.507.795-.58 1.444-.338a46.04 46.04 0 012.19.846c.578.241 2.576.966 3.804 1.376.313.12.794.314 1.203.459v6.448c-.193-.072-.433-.145-.722-.241l-.168-.073c-.723-.265-2.72-1.11-4.574-1.956-.505-.242-1.01-.459-1.444-.676-.433-.242-.794-.41-1.323-.652l-.193-.097-.072.073c-.048.048-.89.893-.794 1.642h-.891v6.327c-.337.218-.867.628-.89.652-.025.049-.049 1.473 0 1.546.048.072 7.798 3.767 9.41 4.492.169.072.361.096.53.072 1.78-.362 11.168-2.415 11.168-2.415a65.41 65.41 0 012.72-.58c.312-.072 1.107-.217 1.733-.362.625-.145 1.371-.29 1.66-.338 1.42-.265 2.142-1.062 2.576-2.85.072-.241.168-.845.192-1.521 0-.652-.072-1.377-.144-1.666v-.024zm-18.75 5.675c-.192.58-.457.942-.65 1.135-.313.314-.963.459-2.238.024 0 0-4.212-1.98-6.138-2.874v-6.762c.073.073.169.12.265.17.722.313 1.252.53 1.66.7.338.169.843.386.843.386s1.156.531 1.324.604c.433.217 2.022 1.038 2.022 1.038.77.362 1.853.845 2.262 1.232.385.362.698.82.795 1.449.096.652.096.724.096 1.425 0 .386-.12 1.038-.265 1.473h.024zm15.982-10.216c-.169 0-.385.024-.65.073-.433.072-13.31 2.898-14.032 3.14a.183.183 0 00-.12.048v-6.328c2.695-.459 13.646-2.656 13.646-2.656s.53-.121 1.18-.266v5.99h-.024z" fill="#2C323D"/><path d="M5.488 10.886L3.346 9.87c-.361-.169-.746-.338-1.156-.241-.65.169-1.3.797-1.3 1.618v11.93l1.3-.604 1.685 1.256V12.36c0-1.135 1.589-1.473 1.589-1.473h.024z" fill="#08C" stroke="#08C" stroke-width="3.4"/><path d="M39.016 6.512c0-.217.193-.41.41-.41h6.257c.217 0 .41.193.41.41v1.135c0 .218-.193.41-.41.41h-4.597v1.546h2.359c1.01 0 1.83.242 2.407.725.578.459.866 1.207.866 2.197 0 2.03-1.3 3.043-3.899 3.043h-3.418a.422.422 0 01-.409-.41V6.512h.024zm3.996 5.048H41.11v2.028h1.805c.217 0 .41 0 .578-.024.168-.024.337-.072.53-.145a.94.94 0 00.409-.338c.096-.145.144-.338.144-.556a.92.92 0 00-.144-.53.648.648 0 00-.41-.29c-.168-.073-.336-.097-.48-.121-.145 0-.338-.024-.554-.024h.024zm11.911-1.763l-4.453 5.602a.388.388 0 01-.313.145H49.05a.423.423 0 01-.41-.41V6.512c0-.217.193-.41.41-.41h1.275c.217 0 .41.193.41.41v5.386l4.428-5.627a.388.388 0 01.313-.145h1.131c.217 0 .41.193.41.41v8.622c0 .217-.193.41-.41.41h-1.275a.422.422 0 01-.41-.41V9.797zm4.507-3.285c0-.217.193-.41.41-.41h6.257c.217 0 .41.193.41.41v1.135c0 .218-.193.41-.41.41H61.5v1.546h2.359c1.01 0 1.83.242 2.407.725.578.459.866 1.207.866 2.197 0 2.03-1.3 3.043-3.899 3.043h-3.418a.423.423 0 01-.409-.41V6.512h.024zm3.972 5.048H61.5v2.028h1.805c.217 0 .41 0 .578-.024a2.46 2.46 0 00.53-.145.941.941 0 00.409-.338c.096-.145.144-.338.144-.556a.92.92 0 00-.144-.53.648.648 0 00-.41-.29c-.168-.073-.336-.097-.48-.121-.145 0-.338-.024-.554-.024h.024zm13.638 3.574c0 .217-.192.41-.409.41h-1.276a.422.422 0 01-.409-.41V8.13H72.01l-.048 1.087c-.097 2.077-.313 3.598-.698 4.588-.241.653-.578 1.111-.987 1.377-.41.266-.987.386-1.685.386H68.4c-.193 0-.338-.193-.338-.386v-1.256c0-.169.145-.314.338-.314.48 0 .818-.217 1.034-.652.145-.265.265-.797.362-1.545.096-.773.168-2.198.192-4.25v-.653c0-.217.193-.41.41-.41h6.233c.217 0 .41.193.41.41v8.622zm8.695-5.337l-4.453 5.602a.388.388 0 01-.313.145h-1.107a.423.423 0 01-.409-.41V6.512c0-.217.193-.41.41-.41h1.275c.217 0 .41.193.41.41v5.386l4.428-5.627a.388.388 0 01.313-.145h1.13c.218 0 .41.193.41.41v8.622c0 .217-.192.41-.41.41h-1.275a.422.422 0 01-.409-.41V9.797zm4.046 1.038c0-1.376.482-2.511 1.42-3.453.939-.942 2.094-1.425 3.442-1.425 1.348 0 1.83.266 2.624.773.818.507 1.396 1.207 1.78 2.053.29.7.434 1.376.434 2.052 0 1.353-.481 2.512-1.42 3.454-.939.942-2.07 1.425-3.418 1.425-1.348 0-2.503-.483-3.442-1.425-.938-.942-1.396-2.101-1.396-3.454h-.024zm2.913-2.028c-.506.555-.747 1.231-.747 2.028 0 .797.265 1.474.77 2.029a2.512 2.512 0 001.926.845c.77 0 1.444-.265 1.926-.82a3.01 3.01 0 00.746-2.03 2.86 2.86 0 00-.77-2.004 2.498 2.498 0 00-1.902-.845c-.746 0-1.444.29-1.925.845l-.024-.048zm10.393-.749h-2.6a.423.423 0 01-.409-.41V6.511c0-.217.193-.41.409-.41h7.293c.217 0 .409.193.409.41v1.135c0 .218-.192.41-.409.41h-2.623v7.077c0 .217-.193.41-.41.41h-1.275a.422.422 0 01-.409-.41V8.058h.024zm13.964 7.076c0 .217-.192.41-.409.41h-6.498a.423.423 0 01-.41-.41V6.512c0-.217.193-.41.41-.41h6.378c.216 0 .409.193.409.41v1.135c0 .218-.193.41-.409.41h-4.694v1.764h4.357c.216 0 .409.193.409.41v1.063c0 .217-.193.41-.409.41h-4.357v1.884h4.814c.217 0 .409.193.409.41v1.136zm4.16 0c0 .217-.192.41-.409.41h-1.276a.423.423 0 01-.409-.41V6.512c0-.217.193-.41.409-.41h1.276c.217 0 .409.193.409.41v3.285l3.49-3.55a.399.399 0 01.289-.121h1.589c.361 0 .553.434.288.7l-3.153 3.212c-.144.145-.144.386 0 .556l3.563 4.298c.216.266.024.677-.313.677h-1.685a.387.387 0 01-.313-.145l-3.057-3.72-.553.58a.398.398 0 00-.121.29v2.584l-.024-.024zm9.119.169a.42.42 0 01-.361.241h-1.251c-.289 0-.482-.29-.361-.58l3.779-8.62a.42.42 0 01.361-.242h1.01c.169 0 .313.096.362.241l3.778 8.622c.121.265-.072.58-.361.58h-1.299a.37.37 0 01-.361-.242l-.554-1.256a.422.422 0 00-.361-.242h-3.394a.37.37 0 00-.361.242l-.553 1.256h-.073zm3.827-3.26l-1.203-2.826-1.228 2.825h2.455-.024z" fill="#2C323D"/><path d="M44.933 25.227a2.192 2.192 0 00-.938-.797c-.41-.193-.891-.29-1.469-.29h-1.492v-1.86h3.49v-1.038h-4.79v7.535h2.792c.434 0 .819-.048 1.156-.169.337-.12.625-.266.866-.483.24-.217.41-.459.53-.749.12-.29.168-.603.168-.942 0-.338-.096-.869-.313-1.207zm-1.107 1.835a1.254 1.254 0 01-.457.483c-.217.121-.482.17-.794.17h-1.493V25.13h1.492c.337 0 .602.049.795.17.216.12.36.265.457.458.096.194.145.41.145.628 0 .218-.049.459-.145.652v.024zm7.03 1.112a5.588 5.588 0 01-.048-.676V25.01c0-.435-.096-.773-.289-1.063a1.703 1.703 0 00-.77-.651 2.664 2.664 0 00-1.107-.218c-.41 0-.674.048-.939.145-.289.097-.53.217-.722.386-.192.17-.36.338-.457.556-.096.217-.169.41-.169.652h1.228a.67.67 0 01.12-.387.802.802 0 01.337-.29c.145-.072.313-.096.53-.096.216 0 .409.048.553.12a.761.761 0 01.337.339c.072.145.096.314.096.507v.387h-.794c-.409 0-.77.048-1.083.12a2.007 2.007 0 00-.794.363 1.474 1.474 0 00-.506.58c-.12.216-.168.482-.168.796 0 .314.072.604.24.845.17.242.386.435.675.604.288.145.601.218.962.218s.554-.049.77-.145a2.34 2.34 0 00.578-.363l.169-.169v.049c.024.217.072.386.144.507h1.276v-.073a2.306 2.306 0 01-.169-.531v-.024zm-1.853-.435a1.46 1.46 0 01-.674.145c-.265 0-.361-.024-.481-.097-.12-.072-.241-.169-.29-.29a.796.796 0 01-.096-.41c0-.145.025-.29.097-.386.072-.097.144-.218.265-.29.12-.073.264-.145.433-.193.168-.049.385-.073.602-.073h.697v1.039c-.024.048-.048.12-.096.169-.12.145-.264.29-.457.386zm6.665-4.563v2.342h-2.19v-2.342H52.25v5.603h1.227v-2.295h2.19v2.295h1.252v-5.603h-1.251zm6.212 5.603h1.612l-2.166-2.947 1.998-2.656h-1.565l-1.492 2.246h-.578v-2.246h-1.252v5.603h1.252v-2.246h.65l1.54 2.246zm6.859-.605a5.588 5.588 0 01-.048-.676V25.01c0-.435-.096-.773-.289-1.063a1.703 1.703 0 00-.77-.651 2.664 2.664 0 00-1.107-.218c-.41 0-.674.048-.939.145-.289.097-.53.217-.722.386-.193.17-.361.338-.457.556-.097.217-.169.41-.169.652h1.228a.67.67 0 01.12-.387.802.802 0 01.337-.29c.144-.072.313-.096.53-.096.216 0 .409.048.553.12a.761.761 0 01.337.339c.072.145.096.314.096.507v.387h-.794c-.41 0-.77.048-1.083.12a2.008 2.008 0 00-.794.363 1.475 1.475 0 00-.506.58c-.12.216-.168.482-.168.796 0 .314.072.604.24.845.169.242.385.435.674.604.29.145.602.218.963.218s.554-.049.77-.145a2.34 2.34 0 00.578-.363l.168-.169v.049c.025.217.073.386.145.507h1.275v-.073a2.306 2.306 0 01-.168-.531v-.024zm-1.853-.435a1.46 1.46 0 01-.674.145c-.265 0-.361-.024-.482-.097-.12-.072-.24-.169-.288-.29a.796.796 0 01-.097-.41c0-.145.024-.29.097-.386a.613.613 0 01.264-.29 1.8 1.8 0 01.434-.193c.168-.049.385-.073.601-.073h.698v1.039c-.024.048-.048.12-.096.169-.12.145-.265.29-.457.386zM78.2 22.401a2.137 2.137 0 00-.939-.845c-.409-.217-.89-.314-1.468-.314h-2.84v7.535h1.3v-2.801h1.564c.578 0 1.083-.097 1.469-.29.409-.193.722-.459.938-.797.217-.338.313-.773.313-1.256s-.096-.87-.313-1.232H78.2zm-1.13 1.909a1.05 1.05 0 01-.457.46c-.217.12-.482.168-.819.168H74.23v-2.656h1.564c.337 0 .626.072.819.193.216.12.36.29.457.507.096.217.144.435.144.676 0 .242-.048.483-.144.676v-.024zm2.282 1.714v-.12c0-.41.048-.773.169-1.111.12-.338.288-.652.505-.894.217-.265.506-.459.819-.604a2.63 2.63 0 011.083-.217c.385 0 .77.073 1.083.218.313.144.601.338.818.603.217.266.385.556.505.894.12.338.169.724.169 1.11v.122c0 .41-.048.772-.169 1.11-.12.338-.288.652-.505.894a2.263 2.263 0 01-.818.604 2.552 2.552 0 01-1.083.217c-.41 0-.77-.072-1.108-.217a2.263 2.263 0 01-.818-.604 2.961 2.961 0 01-.505-.894 3.357 3.357 0 01-.169-1.11h.024zm1.252-.12v.12c0 .242.024.483.072.725.048.217.12.41.24.58.121.169.241.29.434.386.168.097.385.145.602.145a1.232 1.232 0 001.035-.531c.12-.17.192-.363.24-.58a3.36 3.36 0 00.072-.724v-.121a3.29 3.29 0 00-.072-.7 2.637 2.637 0 00-.24-.604c-.12-.17-.241-.314-.434-.411a1.169 1.169 0 00-.601-.145c-.241 0-.434.048-.602.145a1.114 1.114 0 00-.41.41c-.12.17-.192.363-.24.604a3.292 3.292 0 00-.072.7h-.024zm7.367 1.979c.193 0 .385-.048.554-.12.168-.073.289-.194.409-.339a.913.913 0 00.169-.507h1.179c0 .363-.12.7-.313.99-.217.29-.481.532-.818.7-.337.17-.722.267-1.132.267-.409 0-.794-.073-1.107-.218a2.48 2.48 0 01-.794-.604 2.905 2.905 0 01-.481-.893 3.951 3.951 0 01-.145-1.087v-.169c0-.386.048-.749.145-1.087a2.29 2.29 0 01.481-.893c.217-.266.481-.46.794-.604.313-.145.674-.217 1.107-.217.434 0 .843.096 1.18.265.337.17.602.41.794.749.193.314.289.676.313 1.087h-1.18c0-.218-.072-.387-.144-.556a1.053 1.053 0 00-.385-.41 1.14 1.14 0 00-.578-.145c-.216 0-.457.048-.625.145a1.052 1.052 0 00-.386.41 1.497 1.497 0 00-.192.58c-.048.217-.048.434-.048.676v.169c0 .242 0 .459.048.676.048.218.096.41.192.58.097.169.217.314.386.41.168.097.385.145.625.145h-.048zm5.609 0c.193 0 .386-.048.554-.12.169-.073.29-.194.41-.339a.913.913 0 00.168-.507h1.18c0 .363-.121.7-.314.99-.216.29-.481.532-.818.7-.337.17-.722.267-1.131.267a2.66 2.66 0 01-1.107-.218 2.479 2.479 0 01-.795-.604 2.903 2.903 0 01-.481-.893 3.951 3.951 0 01-.144-1.087v-.169c0-.386.048-.749.144-1.087a2.29 2.29 0 01.481-.893 2.17 2.17 0 01.795-.604c.313-.145.673-.217 1.107-.217.433 0 .842.096 1.18.265.336.17.6.41.793.749.193.314.29.676.313 1.087h-1.179c0-.218-.072-.387-.145-.556a1.051 1.051 0 00-.385-.41 1.14 1.14 0 00-.577-.145c-.217 0-.458.048-.626.145a1.052 1.052 0 00-.385.41 1.499 1.499 0 00-.193.58c-.048.217-.048.434-.048.676v.169c0 .242 0 .459.048.676.049.218.097.41.193.58.096.169.217.314.385.41.168.097.385.145.626.145h-.048zm4.64-.94l2.191-3.767h1.251v5.603h-1.251v-3.792l-2.19 3.792h-1.252v-5.603h1.251v3.767zm6.141 0l2.19-3.767h1.252v5.603h-1.252v-3.792l-2.19 3.792h-1.252v-5.603h1.252v3.767z" fill="#80858F"/></g><defs><clipPath id="clip0_18435_11239"><path fill="#fff" transform="translate(0 4)" d="M0 0h137.842v27H0z"/></clipPath></defs></svg>