<svg width="163" height="40" fill="none" xmlns="http://www.w3.org/2000/svg"><g clip-path="url(#clip0_20469_16773)"><path fill-rule="evenodd" clip-rule="evenodd" d="M20.36 0c11.249 0 20.365 8.955 20.365 20S31.609 40 20.36 40C9.116 40 0 31.045 0 20S9.116 0 20.36 0zm0 1.545C9.983 1.545 1.574 9.806 1.574 20c0 10.192 8.41 18.455 18.786 18.455 10.379 0 18.79-8.263 18.79-18.455 0-10.194-8.411-18.455-18.79-18.455zm1.233 4.919s.445.792 2.518.43c1.715-.299 2.663.137 2.663.697 0 0 1.22.142 1.765.488.546.345-.033 1.205-.033 1.205-.082-.159-.199-.25-.529-.32 0 0-1.318-.333-1.777.506-1.003.083-1.868.669-2.276 1.466-.022.047-.403.785-.167 2.272.125.782.52 1.444 1.082 2.01.245.248.55.406.92.365.587-.066 1.074-.34 1.492-.746.229-.224.3-.476.125-.767-.024-.04-.037-.082-.053-.126-.52-1.226-.085-2.309.796-2.951.647-.47 1.395-.524 2.154-.42 5.008.69 5.177 5.635 5.177 7.16v.638c.006 3.976.068 6.767.098 7.327.05.895.37 1.082.572 1.224-.319.216-2.925-.585-3.552-1.346-.042-.05-.127-.073-.194-.088-1.552-.355-1.555-1.939-1.584-2.42-1.3 0-1.803-1.386-1.942-1.748-.114-.31-.2-.672-.234-1 0 .674-1.02 1.252-2.12.179 0 1.105-1.347.91-2.018.254-.06.224-.431.794-.431.794.77.135 1.117.3 1.481.614.853.733.95 1.954.95 2.584 0 0 1.174 1.122 1.64 1.537.138.125.29.235.44.346 1.205-1.317 1.608-.802 1.605-.8.89-.35 1.386.272 1.19.588-.207-.23-.545-.163-.748.017l.132.026c1.05.236.78 1.04.466 1.213 0-.248-.079-.523-.457-.548.018.38-.244.447-.494.457-.596.024-1.593.052-1.898.342-.173.165-.09.65-.277.814-.155.137-.32.12-.407.122-.028.177.026.379.256.615-.866.071-1.516-.675-1.086-1.073.18-.167.787-.729.817-.97.04-.262-.241-.552-.436-.722-.418-.363-.868-.688-1.31-1.025-.13-.1-.282-.188-.431-.269a.593.593 0 00-.443-.047c-.332.102-.327.094-.413.038-.327-.211-.919-.686-2.15-.818.083.051.14.104.186.166.067.09.112.198.183.345.08.166.142.338.213.505.796 1.838 1.585 3.645 2.378 5.484.264.608.03 1.14-.612 1.433-.469.214-1.001.1-1.316-.343.091.305.134.566.005.82a1.113 1.113 0 01-.593.544c-.256.11-.559.15-.839.095-.285-.056-.473-.24-.62-.51-.024.6-.428 1.04-1.097 1.04s-1.073-.44-1.097-1.04c-.147.27-.336.454-.62.51a1.46 1.46 0 01-.84-.095 1.115 1.115 0 01-.593-.545c-.128-.253-.085-.514.005-.819-.314.442-.846.557-1.315.343-.642-.292-.876-.825-.613-1.433.794-1.84 1.582-3.646 2.378-5.484.072-.167.133-.339.213-.505.071-.147.116-.256.183-.345a.638.638 0 01.187-.166c-1.232.132-1.824.607-2.15.818-.087.056-.081.064-.414-.038a.593.593 0 00-.442.047c-.15.08-.3.17-.431.269-.442.337-.893.662-1.31 1.025-.195.17-.476.46-.437.721.03.242.637.804.818.971.43.398-.22 1.144-1.087 1.073.231-.236.285-.438.256-.615-.086-.002-.251.015-.407-.122-.187-.164-.103-.65-.276-.814-.305-.29-1.303-.318-1.898-.342-.25-.01-.513-.076-.494-.457-.379.025-.458.3-.458.549-.325-.18-.605-1.044.599-1.24l-.065-.05c-.204-.14-.497-.174-.684.033-.195-.316.3-.939 1.19-.588-.002-.002.4-.517 1.605.8.151-.111.302-.221.44-.346.466-.415 1.64-1.537 1.64-1.537 0-.63.097-1.851.95-2.584.364-.313.712-.479 1.481-.614 0 0-.371-.57-.43-.794-.671.655-2.02.851-2.02-.254-1.098 1.073-2.119.495-2.119-.18a4.3 4.3 0 01-.234 1.001c-.139.362-.642 1.747-1.941 1.747-.03.482-.032 2.066-1.585 2.42-.066.016-.152.038-.194.09-.627.76-3.233 1.56-3.552 1.345.202-.142.522-.33.573-1.224.032-.59.098-3.651.098-7.964 0-1.526.168-6.472 5.176-7.16.76-.105 1.507-.05 2.155.419.88.642 1.315 1.725.796 2.95-.016.045-.03.088-.053.127-.176.291-.104.543.125.767.418.405.905.68 1.49.746.37.041.677-.117.922-.366.562-.565.943-1.229 1.08-2.009.262-1.481-.144-2.225-.166-2.271-.407-.798-1.272-1.383-2.275-1.467-.46-.839-1.778-.506-1.778-.506-.33.07-.446.161-.528.32 0 0-.58-.86-.034-1.205.546-.346 1.765-.488 1.765-.488 0-.56.949-.996 2.663-.697 2.073.362 2.518-.43 2.518-.43.088.969-.67 1.468-.913 1.603.786.834 1.885 2.499 2.147 4.862.262-2.363 1.36-4.028 2.147-4.862-.242-.135-1.001-.634-.914-1.603zm115.201 9.705c1.044 0 2.191.196 3.477.868l-.508 1.479h-.239c-.701-1.125-1.686-1.58-2.79-1.58-2.356 0-3.481 2.232-3.481 4.403 0 2.508 1.413 4.462 3.901 4.462.821 0 1.568-.117 2.732-1.362l.178.217-.238.968c-.964.633-2.051.948-3.296.948-3.134 0-5.185-2.152-5.185-5.193 0-3.179 2.212-5.21 5.449-5.21zm-21.996 0c3.057 0 4.967 2.17 4.967 5.13 0 3.022-1.994 5.273-5.146 5.273-3.096 0-5.027-2.23-5.027-4.995 0-3.277 2.131-5.409 5.206-5.409zm-48.687 0c2.11 0 3.576 1.024 3.576 3.492v4.896c0 1.008.22 1.244.641 1.244.144 0 .365-.04.484-.08l.12.476a3.627 3.627 0 01-1.508.375c-.663 0-1.084-.296-1.245-.87l-.12-.432c-1.086.849-2.271 1.302-3.256 1.302-1.83 0-3.018-.948-3.018-2.607 0-1.777 1.35-2.607 3.197-2.94l2.047-.376c.688-.119 1.052-.317 1.052-.81 0-2.152-.926-2.704-2.454-2.704-1.185 0-2.072.335-2.713 1.62h-.243v-1.226c.786-.947 2.23-1.36 3.44-1.36zm60.529 0c1.049 0 2.192.196 3.478.868l-.501 1.479h-.242c-.705-1.125-1.686-1.58-2.794-1.58-2.353 0-3.478 2.232-3.478 4.403 0 2.508 1.406 4.462 3.899 4.462.827 0 1.57-.117 2.734-1.362l.182.217-.242.968c-.967.633-2.047.948-3.295.948-3.138 0-5.188-2.152-5.188-5.193 0-3.179 2.212-5.21 5.447-5.21zM59.502 12c-.039.238-.06.613-.06.71 0 .14.043.456.06.673-1.167-.159-3.096-.276-3.695-.276-.42 0-2.05.038-2.934.117v4.957h1.023c2.093 0 6.497.395 6.497 3.968 0 2.901-2.475 4.225-5.729 4.206-.364 0-1.728-.059-2.598-.059-.379 0-.84.02-1.164.06.123-2.174.162-5.175.162-7.663v-.494c-.003-2.207-.028-5.19-.162-6.199 1.287.06 3.415.178 3.882.178 1.121 0 3.41-.099 4.718-.178zm103.165 4.365c-.158 1.48-.18 3.967-.18 4.993 0 .83.022 3.496.18 4.997a7.354 7.354 0 00-.926-.059c-.34 0-.744.02-1.041.059.147-1.37.174-3.712.178-4.74v-.257c0-1.026-.017-2.288-.038-2.705-1.367 1.364-4.989 6.023-6.135 7.702a2.634 2.634 0 00-.579-.059 7.79 7.79 0 00-.641.059c.144-1.37.174-3.712.178-4.74v-.257c0-1.007-.021-3.512-.178-4.993.34.019.778.058 1.02.058.221 0 .645-.04.947-.058-.162 1.48-.18 3.967-.18 4.993 0 .83.018 1.994.039 2.547 1.105-1.32 5.042-6.237 5.988-7.54.221.038.361.058.603.058.119 0 .544-.04.765-.058zm-81.183 0c-.153 1.403-.18 3.708-.182 4.82v.173c0 .83.02 3.495.182 4.997a7.279 7.279 0 00-.926-.058c-.34 0-.743.019-1.04.058.156-1.502.178-4.167.178-4.797-.883-.062-2.09-.14-2.552-.14-.547 0-1.89.038-2.696.099v.198c.004.892.034 3.259.182 4.64a7.308 7.308 0 00-.926-.058c-.34 0-.743.019-1.045.058.144-1.371.175-3.712.18-4.74v-.257c0-1.007-.022-3.512-.18-4.993.34.02.786.058 1.028.058.22 0 .642-.039.943-.058-.161 1.498-.182 3.986-.182 4.086.845.04 2.068.08 2.716.08.663 0 1.929-.04 2.532-.08v-.058c-.004-.4-.032-2.65-.179-4.028.337.02.782.058 1.02.058.225 0 .645-.039.947-.058zm11.194 0l-4.803 4.225c.606.71 3.796 4.244 5.245 5.765-.54-.04-.923-.058-1.203-.058-.365 0-.908.019-1.329.058-.743-1.145-3.015-3.77-4.26-5.115h-.322v.215c.004.969.03 3.519.175 4.9a7.168 7.168 0 00-.922-.058c-.336 0-.74.019-1.044.058.165-1.502.186-4.167.186-4.997 0-1.007-.021-3.512-.186-4.993.343.02.785.058 1.027.058.217 0 .642-.039.94-.058-.158 1.48-.175 3.986-.175 4.344h.322c.663 0 4.06-3.793 4.382-4.344.28.02.74.058.982.058.203 0 .687-.039.985-.058zM104.13 12c3.719 0 5.167 1.107 5.167 3.594 0 3.22-2.755 4.245-6.026 4.245-.182 0-.95-.04-1.333-.079v3.415c0 .987.042 2.192.166 3.18a9.907 9.907 0 00-2.136 0c.123-2.173.165-5.174.165-7.662 0-2.23-.021-5.607-.165-6.693.666.02 1.571.06 2.033.06.702 0 1.61-.06 2.129-.06zm47.156 4.365c-.164 1.48-.185 3.967-.185 4.993 0 .83.021 3.496.185 4.997a7.409 7.409 0 00-.925-.059c-.344 0-.743.02-1.048.059.154-1.436.18-3.937.182-4.878v-.119c0-1.026-.021-2.288-.039-2.705-1.371 1.364-4.988 6.023-6.131 7.702a2.694 2.694 0 00-.582-.059 8 8 0 00-.645.059c.154-1.436.18-3.937.182-4.878v-.119c0-1.007-.021-3.512-.182-4.993.343.019.781.058 1.023.058.221 0 .642-.04.947-.058-.144 1.325-.173 3.455-.178 4.623l-.001.37c0 .83.018 1.994.039 2.547 1.104-1.32 5.045-6.237 5.991-7.54.217.038.358.058.6.058.119 0 .539-.04.767-.058zm-36.548.571c-2.17 0-3.236 2.232-3.236 4.58 0 2.232.947 4.285 3.075 4.285 2.051 0 3.278-1.936 3.278-4.58 0-2.132-.845-4.285-3.117-4.285zM68.081 21.26l-1.329.197c-1.448.218-3.057.71-3.057 2.214 0 1.143.645 1.756 1.95 1.756.806 0 1.609-.277 2.436-1.124V21.26zm-15.208-2.033v5.983c.522.019 1.143.04 1.707.04 2.373 0 3.755-1.089 3.755-3.12 0-2.192-1.645-2.903-5.462-2.903zm50.857-6.12c-.34 0-1.507.02-1.792.059v5.546c.246.043.645.08.845.08 2.816 0 4.466-1.105 4.466-3.199 0-1.954-1.57-2.486-3.519-2.486z" fill="#8F96A3"/></g><defs><clipPath id="clip0_20469_16773"><path fill="#fff" d="M0 0h162.667v40H0z"/></clipPath></defs></svg>