<svg width="40" height="40" fill="none" xmlns="http://www.w3.org/2000/svg"><path d="M20 0c11.046 0 20 8.954 20 20s-8.954 20-20 20S0 31.046 0 20 8.954 0 20 0zm.577 9.55c-6.009 0-11.08 4.476-11.08 10.426 0 2.49.478 4.209.9 5.753.354 1.253.666 2.401.666 3.76.152 1.808 3.614.75 4.707-.602 1.73 1.203 2.725 1.503 4.865 1.503 2.841-.015 5.56-1.114 7.56-3.056s3.118-4.569 3.109-7.304c0-5.784-4.712-10.48-10.727-10.48zm.146 5.142v.005a5.662 5.662 0 013.806 1.75 5.246 5.246 0 011.443 3.814 5.29 5.29 0 01-1.853 3.644 5.706 5.706 0 01-3.974 1.353 5.551 5.551 0 01-2.645-.907c-.474.455-1.234 1.047-1.536.977-.63-.16-1.37-3.243-.953-5.774.505-3.057 2.785-5.007 5.712-4.862z" fill="#A4A9B2"/></svg>