<svg width="121" height="34" fill="none" xmlns="http://www.w3.org/2000/svg"><g clip-path="url(#clip0_18435_11294)"><path fill-rule="evenodd" clip-rule="evenodd" d="M13.12 31.395c-1.08.737-2.443 1.36-4.147 1.814-1.704.453-3.238.736-4.601.736.511-.793.909-1.813 1.25-3.06.34-1.246.51-2.096.568-2.663-3.693-2.89-6.022-7.367-6.022-12.41 0-8.727 7.1-15.753 15.85-15.753 8.748 0 15.792 7.14 15.792 15.866 0 8.727-7.101 15.754-15.85 15.754-.965 0-1.931-.114-2.84-.284z" fill="#E6E6E6"/><path fill-rule="evenodd" clip-rule="evenodd" d="M14.825 31.395c-1.08.737-2.443 1.36-4.147 1.814-1.704.453-3.238.736-4.601.736.511-.793.909-1.813 1.25-3.06.34-1.246.51-2.096.568-2.663-3.693-2.89-6.022-7.367-6.022-12.41C1.873 7.085 8.974.059 17.723.059c8.748 0 15.792 7.14 15.792 15.866 0 8.727-7.101 15.754-15.85 15.754-.965 0-1.93-.114-2.84-.284z" fill="#E9B32F"/><path fill-rule="evenodd" clip-rule="evenodd" d="M17.837 26.92c-6.192 0-11.19-4.986-11.19-11.163 0-6.176 4.998-11.163 11.19-11.163 6.192 0 11.191 4.987 11.191 11.163 0 6.177-4.999 11.164-11.19 11.164zm0-23.233c-6.703 0-12.1 5.384-12.1 12.07 0 6.687 5.454 12.07 12.157 12.07s12.157-5.44 12.157-12.07c-.057-6.686-5.51-12.07-12.214-12.07z" fill="#FEFEFE"/><path fill-rule="evenodd" clip-rule="evenodd" d="M17.665 24.881a.655.655 0 00.681-.68c.114.17.227.284.398.34.17.057.34 0 .511-.056.17-.057.284-.17.398-.34a.785.785 0 000-.51c.17.283.511.34.795.226.398-.17.568-.51.398-.906-.511-1.19-.966-2.324-1.477-3.514-.057-.113-.057-.226-.114-.34-.057-.113-.057-.17-.113-.226l-.114-.114c.795.057 1.136.397 1.363.51.057.057.057.057.284 0 .114-.056.228 0 .284.057.114.057.17.113.285.17.284.227.568.397.795.68.113.113.284.283.284.453 0 .17-.398.51-.511.624-.285.283.113.736.681.68-.17-.17-.17-.284-.17-.397.057 0 .17 0 .227-.057.114-.113.057-.396.17-.51.17-.17.796-.226 1.193-.226.17 0 .341-.057.285-.284.227 0 .284.17.284.34.227-.113.397-.68-.398-.793.114-.113.34-.17.454 0 .114-.227-.17-.623-.738-.397 0 0-.227-.34-1.023.51-.113-.056-.17-.17-.284-.226-.284-.284-1.022-.964-1.022-.964 0-.396-.057-1.19-.568-1.643-.228-.227-.455-.283-.91-.397 0 0 .228-.34.285-.51.397.397 1.25.567 1.25-.17.681.68 1.306.34 1.306-.113 0 .227.057.453.17.623.114.227.398 1.134 1.194 1.134 0 .283 0 1.303.965 1.53.057 0 .114 0 .114.056.397.51 2.045 1.02 2.215.85-.113-.113-.34-.226-.34-.793 0-.397-.057-2.323-.057-5.1 0-.963-.114-4.137-3.238-4.59-.455-.057-.966-.057-1.364.283-.568.397-.795 1.134-.511 1.87 0 0 0 .057.057.057.113.17.057.34-.057.51-.284.283-.568.453-.909.453a.73.73 0 01-.568-.226c-.34-.34-.625-.794-.682-1.304-.17-.963.114-1.416.114-1.473.227-.51.795-.907 1.42-.963.284-.51 1.136-.34 1.136-.34.228.056.284.113.341.226 0 0 .34-.566 0-.793-.34-.227-1.08-.34-1.08-.34 0-.34-.567-.623-1.647-.453-1.306.226-1.59-.284-1.59-.284-.057.624.397.964.568 1.02-.568.624-1.25 1.7-1.42 3.23-.17-1.53-.852-2.606-1.364-3.116.17-.114.625-.397.568-1.02 0 0-.284.51-1.59.283-1.023-.227-1.59.057-1.59.397 0 0-.74.113-1.08.34-.341.226 0 .793 0 .793.057-.113.113-.17.34-.227 0 0 .853-.226 1.137.34.625.057 1.193.454 1.42.964 0 .056.284.51.114 1.473-.114.51-.341.907-.682 1.303-.17.17-.341.284-.568.227a1.732 1.732 0 01-.91-.453c-.17-.17-.17-.284-.056-.51 0 0 0-.057.057-.057.34-.793.057-1.473-.511-1.87-.512-.397-.966-.453-1.477-.397-3.125.454-3.238 3.627-3.238 4.59 0 2.777-.057 4.76-.057 5.1-.057.567-.227.68-.341.794.227.113 1.818-.397 2.215-.85 0-.057.057-.057.114-.057.966-.227.966-1.247.966-1.53.795 0 1.136-.907 1.193-1.133.057-.227.113-.454.17-.624 0 .454.625.794 1.307.114 0 .736.852.566 1.25.17.056.17.284.51.284.51-.455.113-.682.17-.91.396-.51.454-.568 1.247-.568 1.644 0 0-.738.736-1.022.963-.114.057-.17.17-.284.227-.739-.85-1.023-.51-1.023-.51-.568-.227-.852.17-.738.396.114-.17.34-.113.454 0-.738.114-.568.68-.397.794 0-.17.056-.34.284-.34 0 .226.17.283.284.283.397 0 1.022.057 1.193.227.113.113.057.396.17.51.114.113.227.056.227.056 0 .114 0 .227-.17.397.568.057.966-.453.682-.68 0-.113-.398-.453-.398-.623 0-.17.17-.34.284-.454.284-.226.568-.453.795-.68.057-.056.17-.113.284-.17.057-.056.17-.056.284-.056.228.056.228.056.285 0 .227-.114.568-.454 1.363-.51-.057.056-.114.056-.114.113-.057.057-.057.113-.113.227-.057.113-.114.226-.114.34-.511 1.19-.966 2.323-1.477 3.513-.17.397 0 .737.398.907.284.113.625.056.795-.227a.785.785 0 000 .51c.057.17.227.283.398.34.17.057.34.113.51.057.171-.057.285-.17.398-.34-.056.453.171.736.569.736z" fill="#FEFEFE"/><path d="M43.68 10.941h1.874v8.954h5.227V10.94h1.874v8.954h1.307v3.626h-1.818v-1.87H43.68V10.94zm19.144 1.757h-6.022v2.437h2.954c2.557 0 3.806 1.19 3.806 3.173 0 2.323-1.59 3.343-4.374 3.343h-4.26v-10.71h7.84v1.757h.056zm-5.965 4.137v3.06h2.5c1.533 0 2.329-.454 2.329-1.587 0-1.02-.682-1.473-2.273-1.473H56.86zm15.223-3.347c2.5 0 4.26 1.757 4.26 4.137s-1.76 4.137-4.26 4.137-4.26-1.757-4.26-4.137 1.76-4.137 4.26-4.137zm0 6.687c1.477 0 2.443-.963 2.443-2.493 0-1.53-1.08-2.55-2.443-2.55-1.42 0-2.443.963-2.443 2.55 0 1.416 1.023 2.493 2.443 2.493zm10.967-1.757h-3.806v3.23H77.48v-7.933h1.762v3.116h3.806v-3.116h1.76v7.933h-1.76v-3.23zm8.743-3.118h-2.84v1.246c0 4.194-1.364 5.327-3.352 5.157l-.114-1.643c.852.056 1.761-.454 1.761-4.137v-2.267h6.306v7.934h-1.761V15.3zm3.245-.622c.738-.736 2.045-1.19 3.351-1.19 2.102 0 3.238 1.19 3.238 3.287v4.873h-1.76v-.85c-.455.51-1.307.964-2.443.964-1.761 0-2.898-.964-2.898-2.494 0-1.756 1.591-2.55 3.75-2.55.568 0 1.25.114 1.647.227 0-1.133-.454-1.813-1.704-1.813-.852 0-1.534.283-2.272.85l-.91-1.304zm4.885 4.477v-.737a5.051 5.051 0 00-1.477-.226c-1.25 0-2.102.283-2.102 1.076 0 .624.568 1.02 1.477 1.02 1.08-.056 1.761-.623 2.102-1.133zm3.18 2.495v-7.934h1.761v5.214l4.26-5.214h1.534v7.934h-1.761v-5.157l-4.261 5.157h-1.533zm2.783-11.334c0 .624.398 1.02 1.079 1.02.682 0 1.023-.396 1.023-1.02h1.591c-.057 1.587-1.25 2.38-2.614 2.38-1.477 0-2.669-.793-2.726-2.38h1.647zm11.754 8.102h-3.806v3.23h-1.761v-7.933h1.761v3.116h3.806v-3.116h1.761v7.933h-1.761v-3.23zM43.798 4.48h.398l1.477 1.87 1.42-1.87h.397v3.514h-.454V5.217L45.672 7.03l-1.42-1.813v2.777h-.454V4.48zm6.133-.113c1.08 0 1.875.794 1.875 1.87 0 1.077-.739 1.814-1.875 1.814-1.136 0-1.874-.794-1.874-1.814 0-1.076.738-1.87 1.874-1.87zm0 3.287c.796 0 1.42-.567 1.42-1.417 0-.85-.624-1.416-1.42-1.416-.795 0-1.42.566-1.42 1.416s.625 1.417 1.42 1.417zm5.511-4.308c-.568.227-1.477.113-1.988.34-.682.34-.852 1.077-.852 1.643.284-.51.909-.793 1.534-.793 1.022 0 1.704.623 1.704 1.7 0 1.02-.739 1.813-1.818 1.813-1.136 0-1.874-.736-1.874-2.096 0-1.304.17-2.154 1.079-2.607.625-.34 1.534-.17 2.102-.397l.113.397zm-2.84 2.72c0 1.02.568 1.587 1.363 1.587.796 0 1.364-.624 1.364-1.36 0-.794-.455-1.304-1.307-1.304-.795 0-1.25.51-1.42 1.077zm3.754 1.928V4.48h.455v2.89l2.329-2.89h.454v3.514h-.454v-2.89l-2.33 2.89h-.454zm6.646-3.117h-1.76V5.5c0 1.927-.569 2.494-1.137 2.494h-.114l-.056-.454h.056c.341 0 .796-.34.796-2.096V4.48h2.67v3.514h-.455V4.877zm1.25-.397h.454v1.134h1.023c1.08 0 1.42.51 1.42 1.19 0 .623-.34 1.19-1.477 1.19h-1.42V4.48zm.398 1.587v1.53h.908c.739 0 1.023-.283 1.023-.793s-.284-.794-1.023-.794h-.908v.057zm5.68.34h-2.272v1.587h-.455V4.48h.455v1.53h2.272V4.48h.455v3.514h-.455V6.407zm2.894-2.04c1.08 0 1.875.794 1.875 1.87 0 1.077-.739 1.814-1.875 1.814-1.08 0-1.874-.794-1.874-1.814 0-1.076.738-1.87 1.874-1.87zm0 3.287c.796 0 1.42-.567 1.42-1.417 0-.85-.624-1.416-1.42-1.416-.795 0-1.42.566-1.42 1.416s.568 1.417 1.42 1.417zm5.511-.34c-.34.51-.852.737-1.42.737-1.136 0-1.875-.737-1.875-1.814 0-1.02.625-1.87 1.818-1.87.91 0 1.648.624 1.648 1.587v.397h-2.898c0 .793.625 1.303 1.42 1.303.455 0 .853-.283 1.08-.567l.227.227zm-2.84-1.36h2.5c0-.737-.455-1.19-1.194-1.19-.795.057-1.25.51-1.306 1.19zm8.121-1.077H81.8v3.117h-.454V4.48h3.124v3.514h-.454V4.877zm1.194-.397h.454v.51c.284-.453.796-.623 1.25-.623 1.023 0 1.704.737 1.704 1.814 0 1.076-.738 1.926-1.76 1.926-.569 0-.91-.113-1.194-.396v1.7h-.454V4.48zm.454 1.19v1.36c.228.454.682.624 1.137.624.738 0 1.306-.623 1.306-1.473 0-.85-.454-1.417-1.25-1.417a1.374 1.374 0 00-1.193.907zm3.519 2.324V4.48h.454v2.89l2.33-2.89h.454v3.514h-.455v-2.89l-2.329 2.89h-.454zm6.595-3.117h-1.76V5.5c0 1.927-.569 2.494-1.137 2.494h-.113l-.057-.454h.057c.34 0 .795-.34.795-2.096V4.48h2.67v3.514h-.455V4.877zm2.899-.51c1.08 0 1.875.794 1.875 1.87 0 1.077-.739 1.814-1.875 1.814-1.079 0-1.874-.794-1.874-1.814 0-1.076.738-1.87 1.874-1.87zm0 3.287c.796 0 1.421-.567 1.421-1.417 0-.85-.625-1.416-1.42-1.416-.796 0-1.42.566-1.42 1.416s.624 1.417 1.42 1.417z" fill="#3E4148"/><path d="M100.546 4.48h.568l1.704 1.644V4.48h.455v1.644l1.704-1.644h.568l-1.647 1.644 1.761 1.926h-.568l-1.534-1.643-.227.227V8.05h-.512V6.634l-.284-.227-1.477 1.587h-.568l1.704-1.87-1.647-1.644z" fill="#3E4148"/><path d="M108.841 7.314c-.341.51-.852.737-1.42.737-1.137 0-1.875-.737-1.875-1.814 0-1.02.625-1.87 1.818-1.87.909 0 1.647.624 1.647 1.587v.397h-2.897c0 .793.625 1.303 1.42 1.303.455 0 .852-.283 1.08-.567l.227.227zM106 5.954h2.5c0-.737-.455-1.19-1.193-1.19-.739.057-1.193.51-1.307 1.19zm6.245.453h-2.272v1.587h-.454V4.48h.454v1.53h2.272V4.48h.455v3.514h-.455V6.407zm1.196 1.587V4.48h.455v2.89l2.329-2.89h.454v3.514h-.454v-2.89l-2.329 2.89h-.455zm7.101-.68c-.341.51-.852.737-1.42.737-1.136 0-1.875-.737-1.875-1.814 0-1.02.625-1.87 1.818-1.87.909 0 1.647.624 1.647 1.587v.397h-2.897c0 .793.625 1.303 1.42 1.303.455 0 .852-.283 1.08-.567l.227.227zm-2.84-1.36h2.499c0-.737-.454-1.19-1.193-1.19-.738.057-1.25.51-1.306 1.19z" fill="#3E4148"/></g><defs><clipPath id="clip0_18435_11294"><path fill="#fff" d="M0 0h121v34H0z"/></clipPath></defs></svg>