<svg width="83" height="34" fill="none" xmlns="http://www.w3.org/2000/svg"><path fill="#E6E6E6" d="M0 1.742h24.41V34H0z"/><path d="M26.148 32.262H1.738V10.466h24.41v21.796zm0-31.826H1.738V0h24.41v.436z" fill="#A3917C"/><path d="M22.658 30.512H5.222V12.203h17.436v18.309zm3.49-20.052H1.738V.434h24.41V10.46z" fill="#FAFAFA"/><path d="M23.525 1.746a1.308 1.308 0 110 2.617 1.308 1.308 0 010-2.617zm.001.107a1.206 1.206 0 10.001 2.412 1.206 1.206 0 000-2.412zm.079.266s.026.054.149.03c.101-.02.157.009.157.046 0 0 .072.01.105.034.032.022-.001.079-.002.08-.005-.01-.012-.016-.032-.02-.005-.002-.079-.021-.105.033a.168.168 0 00-.135.099c-.001.003-.024.053-.01.153a.259.259 0 00.065.136c.014.017.033.027.055.024a.144.144 0 00.087-.05.04.04 0 00.008-.051l-.003-.009c-.03-.083-.005-.156.047-.2a.16.16 0 01.128-.028c.297.047.307.381.307.484 0 .29.004.497.006.537.003.06.02.073.033.082-.02.014-.173-.04-.21-.09a.021.021 0 00-.012-.007c-.092-.024-.092-.13-.094-.163-.077 0-.107-.094-.115-.118a.326.326 0 01-.014-.067c0 .045-.06.085-.125.012 0 .075-.08.061-.12.017a.34.34 0 01-.025.054.16.16 0 01.088.04c.05.05.056.133.056.176a7.07 7.07 0 00.123.126c.071-.088.095-.053.095-.053.053-.024.082.017.07.039-.012-.015-.031-.01-.043 0 .07.014.054.073.035.085 0-.017-.005-.036-.027-.037 0 .025-.015.03-.03.031-.035.002-.094.003-.112.022-.01.012-.006.045-.017.056-.009.009-.018.008-.023.008-.002.012.001.025.015.04-.052.006-.09-.045-.065-.071.01-.012.047-.05.049-.066.002-.017-.015-.036-.026-.048-.025-.024-.051-.046-.078-.069a.205.205 0 00-.025-.019.032.032 0 00-.026-.002c-.02.006-.02.006-.025.002-.02-.014-.055-.046-.128-.055a.04.04 0 01.011.012.132.132 0 01.012.022l.012.034.141.37c.015.041.002.077-.036.097a.058.058 0 01-.078-.023c.005.02.007.038 0 .055a.07.07 0 01-.035.036.077.077 0 01-.05.007c-.017-.004-.028-.016-.036-.034-.002.04-.026.07-.066.07-.04 0-.064-.03-.065-.07-.009.018-.02.03-.036.034a.077.077 0 01-.05-.007.07.07 0 01-.035-.036c-.008-.017-.006-.035 0-.055-.019.03-.05.037-.078.023-.038-.02-.052-.056-.037-.097l.141-.37.013-.034a.154.154 0 01.01-.022.045.045 0 01.012-.012c-.073.009-.108.041-.128.055-.004.004-.005.004-.024-.002a.032.032 0 00-.027.002.203.203 0 00-.025.019c-.026.023-.052.045-.077.07-.012.01-.028.03-.026.047.001.017.038.054.049.066.025.026-.014.077-.065.072a.052.052 0 00.015-.041c-.005 0-.015 0-.024-.008-.01-.011-.006-.044-.016-.056-.019-.019-.077-.02-.113-.022-.015 0-.03-.006-.029-.031-.022.001-.027.02-.027.037-.02-.012-.036-.07.035-.084-.012-.012-.032-.016-.044-.001-.011-.022.018-.063.07-.04 0 0 .024-.034.096.054a.355.355 0 00.025-.023l.098-.103c0-.043.005-.126.056-.175.021-.021.042-.032.087-.041a.342.342 0 01-.025-.054c-.04.044-.119.058-.119-.017-.065.073-.126.033-.126-.012a.326.326 0 01-.014.067c-.008.024-.038.118-.115.118-.002.033-.002.14-.094.163-.003.001-.009.003-.011.006-.038.052-.192.106-.211.091.012-.01.03-.022.034-.082.002-.04.006-.246.006-.537 0-.103.01-.437.306-.484.045-.007.09-.003.128.029a.171.171 0 01.047.199l-.003.009c-.01.02-.005.037.008.052a.144.144 0 00.088.05c.022.002.04-.008.055-.025a.266.266 0 00.064-.136c.016-.1-.008-.15-.01-.153a.168.168 0 00-.134-.099c-.027-.054-.1-.035-.106-.034-.02.005-.026.011-.031.022 0 0-.034-.058-.002-.081a.292.292 0 01.104-.034c0-.037.056-.067.158-.047.122.025.149-.029.149-.029a.117.117 0 01-.054.109.616.616 0 01.127.328.617.617 0 01.127-.328.117.117 0 01-.053-.109z" fill="#8A8F9B"/><path fill-rule="evenodd" clip-rule="evenodd" d="M5.111 6.482h-.296l-.045-.381H3.396l-.045.381h-.296V5.73h.225c.015-.023.038-.073.07-.15a2.1 2.1 0 00.098-.328 4.56 4.56 0 00.083-.53c.022-.214.032-.465.03-.756H4.84V5.73h.271v.753zm-.694-.752V4.34h-.472a5.709 5.709 0 01-.087.89c-.046.23-.092.398-.14.501h.7zM6.53 3.965H5.264V6.1h1.281v-.372h-.863v-.522h.772v-.372h-.772v-.498h.848v-.372zm1.443 1.242H7.19V6.1h-.418V3.965h.418v.87h.782v-.87h.418V6.1h-.418v-.894zM9.09 3.965h-.418v2.114c.048.013.102.022.16.028a5.168 5.168 0 00.33.023l.114.001c.283 0 .5-.062.651-.186.152-.124.227-.308.227-.552a.776.776 0 00-.063-.337.545.545 0 00-.173-.21.662.662 0 00-.249-.11 1.361 1.361 0 00-.369-.027l-.084.006a1.387 1.387 0 00-.126.016v-.766zm.21 1.798c.057 0 .11-.005.161-.017a.364.364 0 00.135-.058.276.276 0 00.09-.108.38.38 0 00.032-.165.358.358 0 00-.035-.17.271.271 0 00-.092-.101.34.34 0 00-.133-.05 1.004 1.004 0 00-.21-.008l-.061.006a.767.767 0 00-.095.015v.638c.023.006.053.01.09.014.038.003.077.004.118.004zm1.445-1.426h.824v-.372h-1.242V6.1h.418V4.337zm2.138.58l.024-.278h-.015l-.144.287-.796 1.175h-.314V3.965h.418v1.162l-.03.287h.018l.15-.296.796-1.153h.31V6.1h-.417V4.917zM4.51 7.694l-.024.278v1.184h.418V7.02h-.312l-.796 1.153-.15.296h-.018l.03-.287V7.02h-.417v2.136h.314L4.35 7.98l.144-.287h.015zm1.893.545h-.11v.912h-.418V7.015h.418v.946l.097-.043.59-.903h.475l-.622.897-.165.116.17.12.712 1.003h-.516l-.631-.912zm1.56-1.241a2.885 2.885 0 00-.282.038v2.115h.418v-.736l.05.006a1.604 1.604 0 00.142.006h.049c.106 0 .208-.013.307-.04a.75.75 0 00.264-.127.65.65 0 00.186-.228.748.748 0 00.07-.34.713.713 0 00-.08-.362.602.602 0 00-.21-.216.794.794 0 00-.288-.104 1.991 1.991 0 00-.32-.026c-.1 0-.203.005-.306.014zm.343.35a1.399 1.399 0 00-.204.014v.693l.036.006a.756.756 0 00.105.006h.039a.899.899 0 00.163-.015.403.403 0 00.145-.056.294.294 0 00.102-.115.417.417 0 00.038-.192.3.3 0 00-.133-.272.374.374 0 00-.135-.055.792.792 0 00-.156-.015zm2.306-.328H9.346v2.136h1.281v-.373h-.863v-.522h.772V7.89h-.772v-.497h.848V7.02zm2.11 2.517h-.297l-.045-.381h-1.373l-.046.381h-.296v-.754h.226a1.27 1.27 0 00.07-.15c.032-.077.065-.186.097-.327.033-.142.06-.319.083-.531a6.88 6.88 0 00.03-.755h1.279v1.763h.271v.754zm-.686-2.146v1.392h-.698c.046-.104.093-.271.139-.502.045-.231.074-.527.086-.89h.473zm2.083.58l.024-.277h-.015l-.143.287-.797 1.175h-.314V7.02h.418v1.162l-.03.287h.018l.15-.296.796-1.153h.31v2.136h-.417V7.972zm1.605-.584h.622v-.372H14.68v.372h.626v1.764h.418V7.387z" fill="#525969"/><path fill-rule="evenodd" clip-rule="evenodd" d="M8.733 1.752c.032.01.074.016.125.016a.39.39 0 00.121-.016.209.209 0 00.076-.042.149.149 0 00.04-.06.206.206 0 00.013-.07.143.143 0 00-.047-.027.232.232 0 00-.06-.014l-.038.02v.14a.608.608 0 01-.104.012.41.41 0 01-.053-.003.191.191 0 01-.05-.013v-.136l-.039-.02a.295.295 0 00-.06.012.16.16 0 00-.054.03c0 .023.004.046.011.069a.14.14 0 00.04.06c.02.017.046.031.079.042zm-5.251.869h-.386v-.044a.677.677 0 01.125-.037v-.905a.402.402 0 01-.125-.038v-.044h.386v.044a.567.567 0 01-.114.038v.398h.478v-.398a.79.79 0 01-.114-.038v-.044h.386v.044a.252.252 0 01-.06.024l-.065.014v.905a.65.65 0 01.125.037v.044h-.386v-.044a.556.556 0 01.114-.037v-.427h-.479v.427a.567.567 0 01.115.037v.044zm1.264-.197c0 .022 0 .042.002.058l.003.052.105.015v.032a.565.565 0 01-.174.058h-.038a.234.234 0 01-.018-.077 2.21 2.21 0 01-.005-.092h-.007a.211.211 0 01-.07.117.232.232 0 01-.153.055.21.21 0 01-.152-.056.196.196 0 01-.059-.148.21.21 0 01.029-.115.191.191 0 01.083-.071.476.476 0 01.135-.038c.054-.007.117-.013.188-.017a.877.877 0 00.004-.118.284.284 0 00-.017-.09.126.126 0 00-.043-.058.123.123 0 00-.074-.021c-.014 0-.03 0-.048.002a.177.177 0 00-.052.013l-.072.183h-.04a.926.926 0 01-.026-.094.587.587 0 01-.015-.096.515.515 0 01.287-.075c.052 0 .093.007.124.022A.176.176 0 014.746 2a.486.486 0 01.008.085c0 .061-.001.12-.004.177a3.62 3.62 0 00-.004.162zm-.23.104a.142.142 0 01-.067.016.12.12 0 01-.091-.036.143.143 0 01-.034-.102c0-.025.004-.048.012-.068a.106.106 0 01.045-.05.244.244 0 01.088-.028.936.936 0 01.145-.01v.161a.222.222 0 01-.049.08.18.18 0 01-.049.037zm.405-.593a.24.24 0 01-.042-.016.426.426 0 01-.039-.021v-.04h.319v.038a.335.335 0 01-.087.039l.195.451.03.095h.002l.023-.096.145-.45a.214.214 0 01-.084-.037v-.04h.218v.04a.249.249 0 00.022.012.363.363 0 01-.066.025l-.238.686a1.276 1.276 0 01-.07.158.468.468 0 01-.065.095.222.222 0 01-.067.052.315.315 0 01-.074.023.415.415 0 01-.03-.064.938.938 0 01-.022-.067l.02-.037h.159a.28.28 0 00.047-.094l.021-.066-.317-.686zm.702-.025a.2.2 0 00.021-.012v-.04h.285v.04a.271.271 0 01-.09.037v.183c0 .048.01.086.03.115.021.029.055.043.103.043a.27.27 0 00.083-.013.387.387 0 00.077-.034v-.294a.271.271 0 01-.09-.037v-.04h.328v.04a.28.28 0 01-.1.037v.611c.02.006.038.01.055.016a.267.267 0 01.045.021v.038h-.36v-.038a.592.592 0 01.122-.037v-.273a.3.3 0 01-.087.065.282.282 0 01-.126.025c-.07 0-.123-.019-.16-.058a.216.216 0 01-.057-.157v-.213a.314.314 0 01-.079-.025zm1.152.711h-.328v-.038a.25.25 0 01.047-.02 1.31 1.31 0 01.054-.017v-.611a1.342 1.342 0 01-.054-.016.25.25 0 01-.047-.021v-.04h.328v.04a.36.36 0 01-.09.037v.267h.339v-.267a.217.217 0 01-.092-.037v-.04h.33v.04a.28.28 0 01-.101.037v.611a.816.816 0 01.053.014.157.157 0 01.048.023v.038h-.33v-.038a.217.217 0 01.092-.037V2.27h-.339v.277c.02.004.038.01.052.016a.196.196 0 01.038.021v.038zm.858-.46l-.058.009v-.235a.356.356 0 00.091-.037v-.04h-.33v.04a.501.501 0 00.048.022.242.242 0 00.054.015v.611a.725.725 0 00-.05.014.242.242 0 00-.051.023v.038h.142c.038 0 .075.001.109.003l.092.003a.43.43 0 00.12-.016.275.275 0 00.095-.047.215.215 0 00.062-.078.248.248 0 00.022-.107c0-.077-.023-.133-.07-.168a.294.294 0 00-.183-.054.708.708 0 00-.093.005zm-.054.395l.04.003a.536.536 0 00.04.002c.115 0 .173-.061.173-.183a.181.181 0 00-.013-.073.12.12 0 00-.035-.047.137.137 0 00-.051-.025.239.239 0 00-.061-.008h-.046a.287.287 0 00-.047.006v.325zm.454.065h.328v-.038a.502.502 0 00-.1-.037v-.611a.633.633 0 00.056-.016.179.179 0 00.044-.021v-.04h-.33v.04a.21.21 0 00.092.037v.611a.423.423 0 00-.09.037v.038zm.397-.763h.324v.04a.408.408 0 01-.092.037v.418l-.017.142h.008l.06-.115.326-.522h.206v.04a.317.317 0 01-.1.037v.611l.054.016a.211.211 0 01.046.021v.038h-.323v-.038a.36.36 0 01.091-.037V2.11l.015-.12h-.007l-.058.114-.324.517H8.43v-.038a.503.503 0 01.101-.037v-.611a.247.247 0 01-.1-.037v-.04zm1.972 0h.233v.04l.015.01a.416.416 0 01-.071.027 3.325 3.325 0 01-.101.13l-.102.129a6.895 6.895 0 01.112.158 6.905 6.905 0 00.146.194l.062.037v.038h-.162l-.042-.035a5.88 5.88 0 01-.168-.263 1.757 1.757 0 00-.04-.063h-.073v.286c.031.009.062.02.091.037v.038h-.306v-.038a1.044 1.044 0 01.085-.037V2.25l-.084.016-.036.062a14.562 14.562 0 01-.106.182.572.572 0 01-.056.076l-.046.035h-.158v-.038l.07-.037c.025-.03.05-.06.074-.093a5.134 5.134 0 00.174-.248 3.032 3.032 0 01-.213-.27.203.203 0 01-.076-.037v-.04h.264v.04a.267.267 0 01-.077.037c.028.048.057.094.09.138l.101.138h.08v-.276a.217.217 0 01-.086-.037v-.04h.296v.04a.176.176 0 01-.081.037v.285l.084-.015.097-.135a2.1 2.1 0 00.086-.135.81.81 0 01-.04-.016.171.171 0 01-.036-.021v-.04zm1.037.037v-.037h-.26v.04c.024.018.053.03.083.037l-.145.45-.023.096h-.003l-.029-.095-.195-.451a.334.334 0 00.087-.039v-.038h-.288v.04a.132.132 0 01-.016.01.406.406 0 00.066.027l.317.686a1.867 1.867 0 01-.038.108.282.282 0 01-.03.052h-.16l-.019.037a.958.958 0 00.022.067.419.419 0 00.03.064.316.316 0 00.074-.023.222.222 0 00.067-.052.468.468 0 00.066-.095 1.27 1.27 0 00.069-.158l.238-.686c.033-.01.06-.02.08-.032v.034l.1.013v.904a.554.554 0 00-.1.037v.038h.338v-.038a.268.268 0 00-.1-.037v-.242a.37.37 0 00.07.023.444.444 0 00.236-.022.314.314 0 00.113-.082.371.371 0 00.071-.131.563.563 0 00.025-.174c0-.135-.024-.233-.074-.293a.258.258 0 00-.21-.09.214.214 0 00-.144.046.305.305 0 00-.086.125h-.001v-.171h-.038a1.083 1.083 0 00-.1.02.645.645 0 00-.093.032zm0 0l-.007.003v.005l.007-.005v-.003zm.292.088a.155.155 0 01.12-.047.17.17 0 01.087.021.162.162 0 01.058.06.295.295 0 01.032.092.624.624 0 01-.005.255.397.397 0 01-.044.11.217.217 0 01-.068.074.164.164 0 01-.091.026.387.387 0 01-.09-.009.216.216 0 01-.061-.025v-.427a.272.272 0 01.062-.13zm.866.638h-.329v-.038a.252.252 0 01.048-.02 1.32 1.32 0 01.053-.017v-.611a1.352 1.352 0 01-.053-.016.252.252 0 01-.048-.021v-.04h.329v.04a.359.359 0 01-.09.037v.267h.338v-.267a.217.217 0 01-.091-.037v-.04h.33v.04a.28.28 0 01-.101.037v.611a.788.788 0 01.053.014.156.156 0 01.047.023v.038h-.33v-.038a.217.217 0 01.092-.037V2.27h-.338v.277c.02.004.037.01.051.016a.195.195 0 01.039.021v.038zm1.129-.139a3.68 3.68 0 01.002-.22c.003-.057.004-.116.004-.177A.484.484 0 0013.724 2a.176.176 0 00-.103-.135.293.293 0 00-.124-.022.514.514 0 00-.287.075.585.585 0 00.015.096.926.926 0 00.026.094h.04l.072-.183a.178.178 0 01.053-.013.566.566 0 01.047-.002.13.13 0 01.075.02.126.126 0 01.042.059c.01.024.015.054.017.09a.875.875 0 01-.004.118c-.071.004-.134.01-.188.017a.475.475 0 00-.135.038.191.191 0 00-.083.07.214.214 0 00-.029.116.196.196 0 00.21.204.233.233 0 00.154-.055.206.206 0 00.07-.117h.007l.005.092a.233.233 0 00.018.077h.038a.663.663 0 00.174-.058V2.55l-.105-.015-.003-.052zm-.299.062a.142.142 0 00.068-.016.18.18 0 00.048-.036.221.221 0 00.05-.081v-.16a.935.935 0 00-.146.009.243.243 0 00-.088.029.106.106 0 00-.045.05.178.178 0 00-.012.067c0 .044.011.078.034.102a.12.12 0 00.091.036zm.594-.152a.413.413 0 01-.039.098l-.13-.03-.02.038a.312.312 0 00.067.145.09.09 0 00.062-.012.176.176 0 00.063-.062.499.499 0 00.059-.129 1.27 1.27 0 00.04-.164 2.031 2.031 0 00.032-.35h.201v.62a.233.233 0 00-.09.037v.038h.328v-.038a.362.362 0 00-.1-.037v-.611a.316.316 0 00.1-.037v-.04h-.624v.04a.42.42 0 00.102.052 2.024 2.024 0 01-.051.442z" fill="#7E6C56"/><path d="M15.693 14.652h-3.487v-.523h3.487v.523zm-4.36-.129H7.846v-.261h3.487v.261zm8.72 0h-3.486v-.261h3.487v.261z" fill="#7E6C56"/><path d="M20.05 28.775H7.847v-.435H20.05v.435zm0-1.737H7.847v-.436H20.05v.436zm0-1.746H7.847v-.437H20.05v.437zm0-1.742H7.847v-.437H20.05v.437zm0-1.747H7.847v-.436H20.05v.436zm0-1.742H7.847v-.436H20.05v.436zm0-1.747H7.847v-.435H20.05v.435z" fill="#BCC1CC"/><path d="M43.099 3.61a1.341 1.341 0 01-.348.153l.781 1.806.116.38h.012l.092-.386.58-1.8a.855.855 0 01-.336-.147v-.158h.896v.158c.024.015.05.028.076.041-.076.04-.167.075-.277.106l-.952 2.746c-.097.26-.19.47-.277.632a1.87 1.87 0 01-.263.381.89.89 0 01-.268.205 1.26 1.26 0 01-.296.094 1.66 1.66 0 01-.12-.256 3.761 3.761 0 01-.087-.268l.079-.147h.635a1.121 1.121 0 00.122-.208c.02-.044.043-.101.067-.17.024-.07.052-.158.085-.263l-1.27-2.746a.964.964 0 01-.168-.06 1.728 1.728 0 01-.155-.087v-.158H43.1v.152zm23.224 0a1.342 1.342 0 01-.347.153l.78 1.806.116.38h.013l.09-.386.58-1.8a.858.858 0 01-.335-.147v-.158h1.044v.128c-.014.006-.029.01-.042.017v.038a1.36 1.36 0 01-.306.122l-.952 2.746c-.098.26-.19.471-.278.632a1.87 1.87 0 01-.262.381.888.888 0 01-.269.205 1.26 1.26 0 01-.296.094 1.66 1.66 0 01-.119-.256 3.786 3.786 0 01-.089-.268l.08-.147h.635a1.1 1.1 0 00.121-.208c.02-.044.043-.101.068-.17a9.59 9.59 0 00.086-.263l-1.27-2.746a.962.962 0 01-.168-.06c-.033-.017-.066-.037-.1-.057a.516.516 0 00.05-.03v-.158h1.17v.152zm2.85.456h.007c.081-.207.195-.374.341-.498.147-.124.339-.185.575-.185.361 0 .642.12.841.36.2.24.3.63.3 1.171 0 .256-.034.489-.101.696a1.48 1.48 0 01-.287.525 1.259 1.259 0 01-.452.33 1.456 1.456 0 01-.588.115c-.15 0-.27-.009-.355-.027a1.475 1.475 0 01-.28-.095v.97a.97.97 0 01.402.147v.153h-1.354v-.153c.138-.065.273-.114.403-.146v-3.62l-.403-.048v-.12c.014-.009.029-.016.042-.025v-.03a2.57 2.57 0 01.357-.121 4.38 4.38 0 01.4-.082h.153v.683zm11.693-.45c-.13.073-.264.122-.402.147V6.21c.085.02.16.043.225.067.065.025.124.051.177.08v.152h-1.311v-.153a.931.931 0 01.36-.146V3.727h-.806a10.13 10.13 0 01-.128 1.4 5.142 5.142 0 01-.159.66 1.992 1.992 0 01-.238.515.703.703 0 01-.25.247.37.37 0 01-.25.046 1.226 1.226 0 01-.174-.272.885.885 0 01-.095-.308l.085-.153.519.122a1.66 1.66 0 00.153-.39c.045-.163.082-.342.113-.537a8.19 8.19 0 00.095-1.232 1.16 1.16 0 01-.223-.093 1.83 1.83 0 01-.187-.116v-.158h2.496v.158zm-40.3-.233c.208 0 .373.029.497.088a.706.706 0 01.413.54c.02.114.03.228.03.342 0 .244-.006.479-.016.705-.01.225-.014.443-.014.65 0 .09.001.166.005.231.005.066.01.135.013.208l.421.061v.128a2.644 2.644 0 01-.696.232h-.153a.939.939 0 01-.073-.308 8.71 8.71 0 01-.018-.37h-.03a.842.842 0 01-.278.47.932.932 0 01-.266.16.931.931 0 01-.347.06.84.84 0 01-.608-.226.784.784 0 01-.235-.591c0-.187.038-.341.113-.461a.766.766 0 01.333-.283c.147-.07.328-.12.543-.15.216-.031.466-.054.75-.07.017-.175.022-.333.016-.474a1.133 1.133 0 00-.068-.36.505.505 0 00-.17-.232.49.49 0 00-.296-.082c-.057 0-.122.003-.193.01a.71.71 0 00-.21.05l-.287.733h-.158a4.279 4.279 0 01-.107-.378 2.38 2.38 0 01-.058-.384c.155-.094.326-.167.516-.22.189-.053.4-.08.631-.08zm35.908 0c.207 0 .374.029.498.088a.703.703 0 01.41.54c.021.114.032.228.032.342 0 .244-.005.479-.016.705a14.7 14.7 0 00-.015.65c0 .09.003.166.007.231l.011.208.421.061v.128a2.639 2.639 0 01-.695.232h-.152a.939.939 0 01-.074-.308 8.71 8.71 0 01-.018-.37h-.03a.845.845 0 01-.279.47.929.929 0 01-.264.16.935.935 0 01-.35.06.839.839 0 01-.605-.226.784.784 0 01-.236-.591c0-.187.038-.341.113-.461a.765.765 0 01.332-.283 1.9 1.9 0 01.543-.15 8.89 8.89 0 01.751-.07c.017-.175.022-.333.016-.474a1.133 1.133 0 00-.067-.36.505.505 0 00-.171-.232.49.49 0 00-.296-.082c-.057 0-.121.003-.193.01a.712.712 0 00-.21.05l-.287.733h-.159a4.278 4.278 0 01-.106-.378 2.5 2.5 0 01-.059-.384c.155-.094.327-.167.516-.22.189-.053.4-.08.632-.08zm-23.31.233a1.427 1.427 0 01-.366.147v.94c.069-.008.147-.019.232-.031.086-.012.21-.018.372-.018.305 0 .55.07.736.213.185.143.277.367.277.672a.99.99 0 01-.088.43.864.864 0 01-.247.311 1.106 1.106 0 01-.379.19 1.721 1.721 0 01-.482.063 6.23 6.23 0 01-.37-.012 7.33 7.33 0 00-.435-.012h-.568v-.153a.981.981 0 01.202-.09 2.9 2.9 0 01.201-.056V3.763a.969.969 0 01-.214-.058 2.014 2.014 0 01-.19-.089v-.158h1.32v.158zM36.421 2.415c-.07.037-.143.067-.22.092a2.266 2.266 0 01-.237.06V4.16h1.916V2.567a3.15 3.15 0 01-.241-.066 1.842 1.842 0 01-.217-.086v-.177h1.544v.177c-.073.04-.154.072-.241.095a4.268 4.268 0 01-.26.057v3.62c.094.016.184.037.27.061.085.024.162.053.23.085v.177h-1.543v-.177c.146-.065.3-.114.458-.146v-1.71h-1.916v1.71a2.266 2.266 0 01.457.146v.177h-1.544v-.177c.163-.065.33-.114.5-.146v-3.62a1.609 1.609 0 01-.5-.152v-.177h1.544v.177zm9.782 1.201a.87.87 0 01-.152.083 1.107 1.107 0 01-.208.064v.732c0 .191.04.345.122.461.081.116.218.174.409.174.114 0 .225-.017.333-.052.108-.034.21-.08.308-.138V3.763a1.085 1.085 0 01-.36-.147v-.158h1.312v.158c-.11.07-.244.118-.402.147V6.21c.08.02.154.042.22.064a1.2 1.2 0 01.182.082v.153h-1.44v-.153c.166-.069.33-.118.488-.146V5.118a1.195 1.195 0 01-.348.259 1.13 1.13 0 01-.507.1c-.276 0-.49-.076-.64-.23-.151-.156-.226-.365-.226-.63v-.854a1.244 1.244 0 01-.326-.106.792.792 0 00.071-.04v-.159h1.164v.158zm3.387 0a1.436 1.436 0 01-.36.147V4.83h1.355V3.763a.868.868 0 01-.366-.147v-.158h1.318v.158c-.11.07-.245.118-.403.147V6.21a3.3 3.3 0 01.214.056.63.63 0 01.19.09v.153h-1.32v-.153a.869.869 0 01.367-.146V5.1H49.23v1.11c.08.016.15.037.208.061a.78.78 0 01.152.085v.153h-1.312v-.153c.057-.032.12-.06.189-.082.069-.022.14-.044.214-.064V3.763a5.331 5.331 0 01-.214-.064 1 1 0 01-.189-.083v-.158h1.312v.158zm6.332 0a.715.715 0 01-.177.083 3.46 3.46 0 01-.225.064V6.21c.069.02.136.042.2.064a2 2 0 01.202.082v.153H54.61v-.153c.057-.028.114-.054.171-.079a1.71 1.71 0 01.19-.067V3.763a.843.843 0 01-.366-.147v-.158h1.317v.158zm1.6 0a1.616 1.616 0 01-.155.073c-.059.025-.13.05-.21.074v1.673l-.067.567h.03l.237-.458 1.307-2.087h.823v.158c-.13.073-.264.122-.402.147V6.21c.077.02.15.042.22.064.069.023.13.05.182.082v.153h-1.293v-.153a1.44 1.44 0 01.366-.146V4.465l.061-.483h-.03l-.233.458-1.293 2.069h-.837v-.153c.07-.032.138-.06.203-.082.065-.022.132-.044.2-.064V3.763a.991.991 0 01-.403-.147v-.158h1.294v.158zm4.518 0a1.065 1.065 0 01-.305.147c.11.195.229.38.357.552.128.173.264.357.406.552h.317V3.763a.872.872 0 01-.341-.147v-.158h1.183v.158a.712.712 0 01-.323.147v1.141l.336-.061c.142-.195.27-.376.387-.54a7.52 7.52 0 00.344-.54 3.27 3.27 0 01-.158-.06.684.684 0 01-.146-.087v-.158h.95v.158l.056.03a1.58 1.58 0 01-.298.117c-.13.179-.265.354-.404.525-.138.17-.274.342-.408.513l.196.274a62.645 62.645 0 00.54.751c.1.134.198.262.295.384l.25.146v.153h-.646l-.171-.14a5.96 5.96 0 01-.223-.327 23.682 23.682 0 01-.235-.375l-.214-.35a7.424 7.424 0 00-.158-.255h-.293V6.21c.126.033.248.081.366.146v.153h-1.226v-.153a4.15 4.15 0 01.168-.079c.054-.024.112-.047.173-.067V5.026l-.335.06a4.924 4.924 0 00-.147.252l-.198.353c-.071.126-.146.25-.223.372a2.3 2.3 0 01-.225.306l-.184.14h-.635v-.153l.281-.146c.102-.118.2-.242.296-.372a20.822 20.822 0 00.506-.723 4.17 4.17 0 01.193-.272 12.13 12.13 0 01-.855-1.08.812.812 0 01-.305-.147v-.158h1.056v.158zm10.823 0a1.439 1.439 0 01-.36.147V4.83h1.354V3.763a.87.87 0 01-.366-.147v-.158h1.319v.158c-.11.07-.244.118-.403.147V6.21c.073.016.144.035.213.056.07.02.133.05.19.09v.153h-1.32v-.153a.87.87 0 01.366-.146V5.1h-1.354v1.11c.081.016.15.037.207.061a.79.79 0 01.153.085v.153H71.55v-.153a.998.998 0 01.19-.082c.068-.022.14-.044.213-.064V3.763a5.38 5.38 0 01-.214-.064 1.005 1.005 0 01-.19-.083v-.158h1.313v.158zm-2.972.15a.62.62 0 00-.476.19 1.088 1.088 0 00-.25.518v1.709a.867.867 0 00.247.1c.091.023.21.033.357.033a.659.659 0 00.363-.103.871.871 0 00.274-.293c.075-.126.133-.274.174-.442.04-.17.062-.356.062-.559 0-.167-.014-.32-.04-.461a1.179 1.179 0 00-.128-.366.645.645 0 00-.232-.241.677.677 0 00-.351-.085zm-16.904 1.16c-.065.002-.128.01-.19.021v1.3l.16.013c.053.004.107.006.164.006.46 0 .69-.245.69-.733a.727.727 0 00-.052-.29.481.481 0 00-.345-.289.957.957 0 00-.244-.031c-.057 0-.118 0-.183.003zm-12.027.11c-.236 0-.43.012-.58.036a.975.975 0 00-.354.116.425.425 0 00-.177.199.711.711 0 00-.05.271c0 .175.046.31.136.406.09.096.211.144.366.144.101 0 .191-.02.268-.062A.724.724 0 0040.765 6a.887.887 0 00.195-.323v-.64zm35.907 0c-.235 0-.428.012-.579.036a.978.978 0 00-.354.116.423.423 0 00-.177.199.711.711 0 00-.049.271c0 .175.044.31.134.406.09.096.212.144.366.144.102 0 .191-.02.269-.062A.723.723 0 0076.672 6a.887.887 0 00.195-.323v-.64zm-18.373-2.86a.93.93 0 01.241.055.572.572 0 01.187.11.823.823 0 01-.049.277.595.595 0 01-.162.241.834.834 0 01-.305.168c-.128.043-.29.065-.485.065-.203 0-.37-.022-.5-.065a.868.868 0 01-.312-.168.558.558 0 01-.162-.24.874.874 0 01-.046-.278.646.646 0 01.214-.116c.078-.025.159-.041.244-.05l.153.08V2.8a.773.773 0 00.202.052 1.663 1.663 0 00.628-.034v-.561l.152-.08z" fill="#7E6C56"/><path fill-rule="evenodd" clip-rule="evenodd" d="M41.93 20.838h-1.016l-.157-1.308H36.05l-.157 1.308h-1.015v-2.584h.774a4.09 4.09 0 00.24-.513c.112-.265.224-.64.335-1.124.112-.485.206-1.092.283-1.82.077-.73.111-1.593.105-2.59h4.383v6.047h.931v2.584zm-2.368-2.583v-4.77h-1.621c-.042 1.24-.141 2.257-.298 3.049-.157.792-.316 1.365-.476 1.72h2.395zm7.564-6.048h-4.341v7.323h4.394v-1.276h-2.961v-1.789h2.647V15.19h-2.647v-1.706h2.908v-1.276zm5.286 4.258h-2.678v3.066h-1.433v-7.324h1.433v2.982h2.678v-2.982h1.433v7.323h-1.433v-3.065zm4.188-4.258h-1.433v7.25c.167.042.35.073.55.094.198.021.395.039.59.053a11.445 11.445 0 00.932.031c.969 0 1.713-.213 2.233-.638.52-.426.78-1.057.78-1.894 0-.467-.074-.852-.22-1.156a1.867 1.867 0 00-.591-.722 2.27 2.27 0 00-.853-.371 4.668 4.668 0 00-1.266-.094l-.288.02a4.82 4.82 0 00-.434.053v-2.626zm.708 6.154c.196 0 .38-.02.555-.058.174-.038.328-.105.46-.199a.946.946 0 00.309-.371c.073-.154.11-.342.11-.565 0-.237-.04-.43-.12-.58a.93.93 0 00-.315-.351 1.163 1.163 0 00-.455-.167 3.439 3.439 0 00-.544-.042c-.048 0-.108.003-.177.01l-.21.021a2.61 2.61 0 00-.324.052v2.187c.077.02.18.037.309.047.129.01.263.016.402.016zm5.291-4.878h2.825v-1.276h-4.258v7.323h1.433v-6.047zm7.683 1.988l.083-.952h-.052l-.492.984-2.73 4.027h-1.078v-7.323h1.434v3.986l-.105.983h.063l.512-1.014 2.73-3.955h1.068v7.323h-1.433v-4.059zM39.863 25.855l-.084.952v4.06h1.434v-7.324h-1.068l-2.73 3.954-.513 1.015h-.062l.104-.983v-3.986h-1.433v7.323h1.078l2.73-4.028.492-.983h.052zm7.17 1.883h-.376v3.128h-1.433v-7.323h1.433v3.243l.335-.147 2.019-3.096h1.632l-2.134 3.076-.565.397.586.408 2.437 3.442H49.2l-2.165-3.128zm5.697-4.257a9.883 9.883 0 00-.967.131v7.25h1.433v-2.521a5.446 5.446 0 00.66.042h.166c.363 0 .714-.046 1.052-.136a2.57 2.57 0 00.905-.44c.265-.202.477-.462.638-.78.16-.317.24-.705.24-1.166 0-.509-.092-.922-.277-1.24a2.066 2.066 0 00-.716-.742 2.722 2.722 0 00-.989-.356 6.828 6.828 0 00-1.093-.089c-.349 0-.7.016-1.052.047zm1.168 1.19a4.823 4.823 0 00-.701.053v2.375a2.658 2.658 0 00.486.042h.131c.189 0 .375-.018.56-.053.185-.035.35-.1.497-.193.146-.094.263-.225.35-.393.088-.167.131-.387.131-.659 0-.23-.042-.42-.125-.57a1.027 1.027 0 00-.33-.36 1.282 1.282 0 00-.465-.19 2.711 2.711 0 00-.534-.051zm8.245-1.128H57.8v7.323h4.394V29.59h-2.96V27.8h2.646v-1.276h-2.647V24.82h2.909v-1.276zm7.592 8.63h-1.014l-.157-1.307h-4.708l-.157 1.308h-1.015V29.59h.774c.05-.077.13-.248.241-.513.112-.265.223-.64.335-1.125a15.55 15.55 0 00.282-1.82c.077-.729.112-1.592.105-2.59h4.383v6.048h.931v2.584zm-2.366-7.355v4.77h-2.396c.16-.355.32-.929.476-1.72.157-.792.256-1.809.298-3.05h1.622zm7.495 1.989l.083-.952h-.052l-.492.983-2.73 4.028h-1.078v-7.323h1.434v3.986l-.105.983h.063l.512-1.015 2.73-3.954h1.068v7.323h-1.433v-4.06zm5.813-1.988h2.134v-1.276h-5.712v1.276h2.144v6.047h1.434V24.82z" fill="#3E4148"/></svg>