<svg width="109" height="34" fill="none" xmlns="http://www.w3.org/2000/svg"><g clip-path="url(#clip0_18435_11198)"><path d="M24.837 4H12.185l6.625 8.269h6.027V31h8.55V4h-8.55z" fill="#000"/><path d="M42.148 10.116V4.168h1.24l2.35 3.839h-.513l2.223-3.839h1.24v5.948h-1.24V5.771l.256.084-1.838 3.08h-.855l-1.88-3.08.213-.084v4.345h-1.197zm10.902.128c-.47 0-.898-.085-1.283-.253a3.319 3.319 0 01-1.026-.675 3.09 3.09 0 01-.684-.97 2.992 2.992 0 01-.256-1.224c0-.422.085-.844.256-1.224.171-.38.385-.717.684-.97.3-.295.641-.506 1.026-.675A3.158 3.158 0 0153.05 4c.47 0 .898.084 1.283.253.385.169.726.38 1.026.675.299.295.513.633.684.97.17.38.256.802.256 1.224 0 .422-.086.844-.256 1.223-.171.38-.385.717-.684.97a3.32 3.32 0 01-1.026.676 3.158 3.158 0 01-1.283.253zm0-1.181c.256 0 .512-.043.726-.127.214-.084.427-.211.598-.38.171-.168.3-.38.385-.59.086-.253.128-.507.128-.802 0-.295-.085-.717-.256-1.012a1.742 1.742 0 00-.684-.675 1.85 1.85 0 00-.94-.254c-.342 0-.513 0-.727.127-.214.127-.428.21-.598.38-.171.168-.3.38-.385.59a2.427 2.427 0 00-.128.802c0 .295.085.717.256 1.012.171.296.385.507.684.675.3.17.598.254.94.254zm4.315 1.053V4.168h1.283v2.278h2.564V4.168h1.283v5.948h-1.283v-2.53h-2.564v2.53h-1.283zm6.629 0V4.168h1.282v3.966l2.65-3.966h1.24v5.948h-1.282V6.151l-2.65 4.008h-1.24v-.043zm7.774 0V5.307h-1.624V4.168h4.573v1.139h-1.624v4.81h-1.325zm6.713.128c-.47 0-.898-.085-1.282-.253a3.32 3.32 0 01-1.026-.675 3.093 3.093 0 01-.684-.97 2.992 2.992 0 01-.257-1.224c0-.422.086-.844.257-1.224.17-.38.385-.717.684-.97a3.32 3.32 0 011.026-.675A3.159 3.159 0 0178.48 4c.47 0 .898.084 1.282.253.385.169.727.38 1.026.675.3.295.513.633.684.97.171.38.257.802.257 1.224 0 .422-.086.844-.257 1.223-.17.38-.385.717-.684.97a3.32 3.32 0 01-1.026.676 3.158 3.158 0 01-1.282.253zm0-1.181c.257 0 .513-.043.727-.127.213-.084.427-.211.598-.38.171-.168.3-.38.385-.59a2.43 2.43 0 00.128-.802c0-.295-.085-.717-.256-1.012a1.742 1.742 0 00-.684-.675 1.849 1.849 0 00-.94-.254c-.343 0-.514 0-.727.127-.214.127-.428.21-.599.38a1.79 1.79 0 00-.385.59 2.427 2.427 0 00-.128.802c0 .295.086.717.257 1.012.17.296.384.507.684.675.299.17.598.254.94.254zm4.363 1.053V4.168h2.35c.428 0 .856.084 1.198.21.342.17.598.38.812.676.214.295.299.633.299 1.055 0 .421-.085.759-.257 1.054a1.43 1.43 0 01-.769.633c-.342.169-.77.211-1.24.211h-1.025v2.11h-1.368zm1.282-3.164h1.026c.342 0 .598-.084.77-.21a.758.758 0 00.299-.633c0-.296-.086-.507-.3-.633-.17-.127-.427-.211-.769-.211h-1.026v1.687zm4.358 3.164V4.168h1.283v3.966l2.65-3.966h1.24v5.948h-1.283V6.151l-2.65 4.008h-1.24v-.043zm6.67 0V4.168h1.283v2.278H99V4.168h1.283v5.948H99v-2.53h-2.564v2.53h-1.283zm6.623 0V4.168h3.591v1.139h-2.308v4.81h-1.283zm-59.63 9.286v-5.949h5.129v5.949h-1.283v-4.81H43.43v4.81h-1.282zm6.623 0v-5.949h2.35c.428 0 .855.085 1.197.211.342.169.599.38.813.675.213.295.299.633.299 1.055 0 .422-.086.76-.257 1.054a1.429 1.429 0 01-.77.633c-.341.169-.769.211-1.239.211h-1.026v2.11H48.77zm1.282-3.165h1.026c.342 0 .598-.084.77-.21a.758.758 0 00.298-.633c0-.296-.085-.507-.299-.633-.17-.127-.427-.211-.77-.211h-1.025v1.688zm4.363 3.165v-5.949h4.146v1.097h-2.864v1.266h2.394v1.012h-2.394v1.434h2.864v1.097h-4.146v.043zm9.356-.002v-4.809h-2.009v.591c0 .675 0 1.308-.128 1.772-.128.464-.17.886-.342 1.223-.17.338-.385.591-.641.76-.256.21-.556.337-.94.422l-.428-1.055c.257 0 .47-.127.641-.253.171-.127.3-.295.385-.506.086-.211.171-.549.171-.929s.043-.886.043-1.476v-1.73h4.488v5.949H63.73h.042v.042zm-4.488 1.52v-2.574h.77l.427-.084h5.557v2.657H64.84v-1.518h-4.317v1.518h-1.24zm7.742-1.518v-5.949h5.13v5.949h-1.283v-4.81h-2.564v4.81h-1.283zm6.623 0v-5.949H76c.428 0 .855.085 1.197.211.342.169.599.38.812.675.214.295.3.633.3 1.055 0 .422-.086.76-.257 1.054a1.429 1.429 0 01-.77.633c-.341.169-.769.211-1.239.211h-1.026v2.11h-1.368zm1.283-3.165h1.026c.342 0 .598-.084.77-.21a.758.758 0 00.298-.633c0-.296-.085-.507-.299-.633-.17-.127-.427-.211-.77-.211h-1.025v1.688zm4.359 3.165v-5.949h1.281v3.966l2.65-3.966h1.24v5.949H83.18v-4.008l-2.65 4.008h-1.24zm6.16 0l1.71-2.447c-.427-.127-.769-.296-1.025-.59a1.53 1.53 0 01-.385-1.056c0-.421.086-.717.257-1.012.17-.295.427-.464.769-.633a3.365 3.365 0 011.197-.21h2.308v5.948H89v-2.279h-.641l-1.496 2.279h-1.454.043zm2.608-3.291h.983v-1.645h-.94c-.342 0-.598.084-.77.21a.735.735 0 00-.299.591c0 .253.086.464.257.633.171.127.427.21.77.21zm4.872 3.291v-4.81h-1.624v-1.139h4.573v1.14h-1.624v4.809H92.93zm3.884 0v-5.949h1.283v3.966l2.65-3.966h1.24v5.949h-1.283v-4.008l-2.65 4.008h-1.24zm6.671-.002v-5.948h1.283v3.965l2.65-3.965h1.24V19.4h-1.283v-4.008l-2.65 4.008h-1.24zm2.608-6.581a2.01 2.01 0 01-.898-.211 1.503 1.503 0 01-.598-.549 1.719 1.719 0 01-.214-.801h1.026c0 .21.043.422.171.548a.712.712 0 00.513.211.712.712 0 00.513-.21c.128-.127.171-.338.171-.55h1.026c0 .296-.043.591-.214.802-.128.254-.342.422-.599.549-.256.126-.555.21-.897.21zM42.147 30.79v-5.485h3.42v.675h-2.651v1.645h1.069c.598 0 1.068.127 1.41.422.342.253.556.675.556 1.181s-.086.633-.214.886a1.465 1.465 0 01-.684.549c-.3.126-.641.168-1.069.168h-1.837v-.042zm.769-.592h1.069c.384 0 .683-.084.897-.253.214-.168.3-.422.3-.717s-.086-.548-.3-.717c-.214-.169-.513-.253-.855-.253H42.96v1.983l-.043-.043zm3.636.592l2.18-5.485h.77l2.265 5.484h-.855l-.556-1.392h-2.48l-.512 1.392h-.812zm1.539-2.026h2.051l-1.068-2.573-.983 2.573zm4.569 2.026v-5.485h.77v2.236h2.864v-2.236h.769v5.484h-.77v-2.573H53.43v2.573h-.77zm5.898 0v-5.485h.769v2.236h1.026v.675h-1.026v2.573h-.77zm3.462 0l-2.308-2.912 2.009-2.573h.897l-2.009 2.573 2.351 2.911h-.983.043zm4.023 0v-5.485h1.966c.385 0 .727.084 1.026.21.3.127.513.338.684.55.171.21.257.547.257.885 0 .338-.086.633-.214.886a1.465 1.465 0 01-.684.548c-.3.127-.641.211-1.069.211h-1.197v2.194h-.769zm.77-2.87h1.196c.385 0 .684-.084.898-.253a.897.897 0 00.342-.717c0-.295-.128-.59-.342-.76-.214-.168-.513-.253-.898-.253h-1.197v1.983zm6.836 2.997c-.428 0-.812-.084-1.154-.21a2.72 2.72 0 01-.94-.591 2.337 2.337 0 01-.6-.928 3.185 3.185 0 01-.213-1.14c0-.421.086-.801.214-1.139.128-.337.342-.632.598-.928.257-.253.556-.464.94-.59a3.299 3.299 0 011.155-.211c.427 0 .812.084 1.154.21.342.127.684.338.94.633.257.254.47.549.599.929.128.337.213.717.213 1.139 0 .421-.085.801-.213 1.139-.128.337-.342.633-.599.928a2.375 2.375 0 01-.94.59 3.301 3.301 0 01-1.154.211v-.042zm0-.717c.3 0 .555 0 .855-.169.256-.084.47-.253.684-.422.213-.168.342-.422.47-.675.128-.253.17-.548.17-.886 0-.337-.085-.801-.298-1.139a1.666 1.666 0 00-.77-.759 2.341 2.341 0 00-1.068-.253c-.385 0-.599 0-.855.169-.257.084-.47.253-.684.422a2.41 2.41 0 00-.47.675c-.129.253-.171.548-.171.885 0 .338.085.802.299 1.14.213.337.427.59.77.759.341.169.683.253 1.068.253zm6.627.717a3.256 3.256 0 01-1.496-.337c-.427-.253-.77-.59-.983-1.013-.256-.422-.342-.928-.342-1.519 0-.59.086-.801.214-1.139.128-.337.342-.632.598-.928a2.55 2.55 0 01.898-.59 3.289 3.289 0 011.154-.211c.427 0 .77 0 1.069.168.299.085.555.254.812.422l-.385.59a1.181 1.181 0 00-.641-.337 2.451 2.451 0 00-.77-.126c-.256 0-.64 0-.897.169-.257.084-.47.253-.684.422a1.833 1.833 0 00-.427.675 2.726 2.726 0 00-.171.885c0 .338.085.844.256 1.182.17.337.427.548.77.717.341.169.726.253 1.153.253.428 0 .556 0 .855-.127.257-.084.513-.21.77-.421l.342.632c-.257.211-.599.38-.898.464-.342.127-.727.17-1.111.17h-.086zm5.598 0a3.257 3.257 0 01-1.496-.337c-.428-.253-.77-.59-.983-1.013-.257-.422-.342-.928-.342-1.519 0-.59.085-.801.213-1.139.129-.337.342-.632.599-.928a2.55 2.55 0 01.898-.59 3.285 3.285 0 011.154-.211c.427 0 .77 0 1.068.168.3.085.556.254.812.422l-.384.59a1.181 1.181 0 00-.641-.337 2.452 2.452 0 00-.77-.126c-.256 0-.641 0-.897.169-.257.084-.47.253-.684.422a1.834 1.834 0 00-.428.675 2.726 2.726 0 00-.17.885c0 .338.085.844.256 1.182.17.337.427.548.769.717a2.57 2.57 0 001.154.253c.428 0 .556 0 .855-.127.257-.084.513-.21.77-.421l.341.632c-.256.211-.598.38-.897.464-.342.127-.727.17-1.112.17h-.085zm3.036-.127v-5.485h.726v4.26l2.95-4.26h.726v5.484h-.727v-4.303l-2.992 4.303h-.684zm5.98 0v-5.485h.727v4.26l2.95-4.26h.726v5.484h-.726v-4.303l-2.992 4.303h-.684z" fill="#121212"/><path d="M9.318 4H.342v27h8.463V16.994l7.609 9.281h6.497v-5.358L9.318 4z" fill="#08C"/></g><defs><clipPath id="clip0_18435_11198"><path fill="#fff" transform="translate(0 4)" d="M0 0h109v27H0z"/></clipPath></defs></svg>