<svg width="40" height="40" fill="none" xmlns="http://www.w3.org/2000/svg"><g clip-path="url(#clip0_4088_115737)"><path fill-rule="evenodd" clip-rule="evenodd" d="M20 0C8.954 0 0 8.954 0 20s8.954 20 20 20 20-8.954 20-20S31.046 0 20 0zm.068 19.903a5.926 5.926 0 004.203-1.748 5.926 5.926 0 000-8.407 5.926 5.926 0 00-8.406 0 5.927 5.927 0 000 8.406 5.926 5.926 0 004.203 1.749zm-1.908-7.876a2.683 2.683 0 011.908-.795c.741 0 1.412.318 1.907.795a2.683 2.683 0 010 3.814 2.684 2.684 0 01-3.815 0 2.683 2.683 0 010-3.814zm9.908 10.278l-1.749-2.384c-.088-.142-.282-.16-.424-.053-1.66 1.412-3.673 2.313-5.845 2.313-2.172 0-4.203-.918-5.845-2.314-.124-.105-.3-.088-.407.053l-1.748 2.385c-.088.106-.053.282.053.37a12.395 12.395 0 004.963 2.42l-3.374 6.481c-.088.177.036.406.248.406h3.602c.124 0 .23-.07.265-.176l2.26-5.351 2.244 5.368a.31.31 0 00.264.177h3.603c.212 0 .336-.212.247-.406l-3.373-6.5c1.784-.423 3.497-1.218 4.963-2.419.123-.088.141-.247.053-.37z" fill="#A4A9B2"/></g><defs><clipPath id="clip0_4088_115737"><path fill="#fff" d="M0 0h40v40H0z"/></clipPath></defs></svg>