<svg xmlns="http://www.w3.org/2000/svg" width="32" height="32" fill="none"><path fill-rule="evenodd" clip-rule="evenodd" d="M16 0C7.163 0 0 7.163 0 16s7.163 16 16 16 16-7.163 16-16S24.837 0 16 0zm7.546 10.109a1.454 1.454 0 100-2.909 1.454 1.454 0 000 2.909zm-3.903 0H9v11.483h2.962v-3.736h5.677l2.59 3.736h3.317L20.69 17.84c.887-.137 1.525-.465 1.915-.981.39-.517.586-1.343.586-2.445v-.86c0-.655-.071-1.171-.195-1.567a2.604 2.604 0 00-.639-1.05c-.32-.293-.674-.5-1.1-.638-.426-.12-.958-.189-1.614-.189zm-.479 5.217h-7.202V12.64h7.202c.408 0 .692.069.834.19.142.12.23.344.23.67v.965c0 .344-.088.568-.23.688-.142.12-.426.172-.834.172z" fill="#A4A9B2"/></svg>