<svg width="40" height="40" xmlns="http://www.w3.org/2000/svg"><path d="M20 40C8.954 40 0 31.046 0 20S8.954 0 20 0s20 8.954 20 20-8.954 20-20 20zm7.267-25.854l-.313.669s-1.482 3.148-3.287 5.131c-.58.642-.875.835-1.195.835-.258 0-.377-.215-.377-.793V14h-5.612v.459c0 .668 1.025.819 1.025 2.629v3.734c0 .752-.04 1.043-.396 1.043-.944 0-3.184-3.233-4.442-6.904L12.358 14H8.692c-.399 0-.692.271-.692.668 0 .73.86 4.11 4.23 8.638C14.493 26.352 17.468 28 20.148 28c1.635 0 2.031-.271 2.031-.959v-2.337c0-.584.231-.835.567-.835.377 0 1.041.12 2.596 1.649.002 0 2.492 2.482 2.492 2.482h3.56c.315 0 .608-.145.608-.667 0-.69-.9-1.92-2.283-3.38-.565-.75-1.487-1.565-1.78-1.942-.418-.437-.293-.687 0-1.146 0 0 3.163-4.445 3.477-5.904.106-.522-.125-.815-.67-.815h-3.478z" fill="#A4A9B3" fill-rule="evenodd"/></svg>