<svg width="40" height="40" xmlns="http://www.w3.org/2000/svg"><path fill-rule="evenodd" clip-rule="evenodd" d="M.004 19.595c8.226-.094 12.83-.633 15.894-3.697S19.5 8.23 19.595.004C8.871.217.217 8.871.004 19.595zM20.789.015c.095 8.219.635 12.82 3.698 15.883 3.016 3.016 7.524 3.585 15.509 3.692C39.783 8.997 31.334.425 20.789.015zm19.195 20.78c-7.977.107-12.482.677-15.497 3.692-3.015 3.015-3.585 7.52-3.693 15.497 10.414-.406 18.784-8.776 19.19-19.19zm-20.394 19.2c-.107-7.984-.676-12.492-3.692-15.508-3.063-3.063-7.664-3.602-15.883-3.697.41 10.544 8.982 18.993 19.575 19.206z" fill="#A4A9B3"/></svg>