<svg width="40" height="40" xmlns="http://www.w3.org/2000/svg"><path d="M20 40C8.954 40 0 31.046 0 20S8.954 0 20 0s20 8.954 20 20-8.954 20-20 20zm9.948-24.807a1.742 1.742 0 00-.08-.33 1.943 1.943 0 00-1.838-1.323h.133s-3.44-.52-8.014-.54c-4.575.021-8.014.54-8.014.54h.133a1.943 1.943 0 00-1.919 1.653c-.124.892-.33 2.673-.349 4.807.018 2.134.225 3.913.35 4.806a1.874 1.874 0 00.079.33 1.94 1.94 0 001.839 1.323h-.133s3.439.52 8.014.541c4.575-.022 8.014-.54 8.014-.54h-.133a1.942 1.942 0 001.918-1.654 38.11 38.11 0 00.35-4.806 38.315 38.315 0 00-.35-4.807zm-6.793 5.24l-4.098 2.978a.493.493 0 01-.783-.4V17.06a.494.494 0 01.783-.4l4.098 2.976a.494.494 0 010 .798z" fill="#A4A9B3" fill-rule="evenodd"/></svg>